<mxfile host="app.diagrams.net" agent="Mozilla/5.0 (Windows NT 10.0; Win64; x64) AppleWebKit/537.36 (KHTML, like Gecko) Chrome/131.0.0.0 Safari/537.36" version="25.0.3">
  <diagram name="Page-1" id="Ps6MOU7-8_vHRRFFbxZr">
    <mxGraphModel dx="7114" dy="4911" grid="1" gridSize="10" guides="1" tooltips="1" connect="1" arrows="1" fold="1" page="1" pageScale="1" pageWidth="827" pageHeight="1169" math="0" shadow="0">
      <root>
        <mxCell id="0" />
        <mxCell id="1" parent="0" />
        <mxCell id="xoTzIHeCAV2_g0zYCG---73" value="&lt;font style=&quot;&quot;&gt;&lt;b style=&quot;&quot;&gt;&lt;font&gt;Data Scraping &lt;span style=&quot;&quot; class=&quot;hljs-keyword&quot;&gt;Module&lt;/span&gt;&lt;/font&gt;&lt;/b&gt;&lt;/font&gt;&lt;div&gt;&lt;span class=&quot;hljs-keyword&quot;&gt;&lt;br&gt;&lt;/span&gt;&lt;/div&gt;&lt;div&gt;&lt;span class=&quot;hljs-keyword&quot;&gt;&lt;br&gt;&lt;/span&gt;&lt;/div&gt;&lt;div&gt;&lt;span class=&quot;hljs-keyword&quot;&gt;&lt;br&gt;&lt;/span&gt;&lt;/div&gt;&lt;div&gt;&lt;span class=&quot;hljs-keyword&quot;&gt;&lt;br&gt;&lt;/span&gt;&lt;/div&gt;&lt;div&gt;&lt;span class=&quot;hljs-keyword&quot;&gt;&lt;br&gt;&lt;/span&gt;&lt;/div&gt;&lt;div&gt;&lt;span class=&quot;hljs-keyword&quot;&gt;&lt;br&gt;&lt;/span&gt;&lt;/div&gt;&lt;div&gt;&lt;span class=&quot;hljs-keyword&quot;&gt;&lt;br&gt;&lt;/span&gt;&lt;/div&gt;&lt;div&gt;&lt;span class=&quot;hljs-keyword&quot;&gt;&lt;br&gt;&lt;/span&gt;&lt;/div&gt;&lt;div&gt;&lt;span class=&quot;hljs-keyword&quot;&gt;&lt;br&gt;&lt;/span&gt;&lt;/div&gt;&lt;div&gt;&lt;span class=&quot;hljs-keyword&quot;&gt;&lt;br&gt;&lt;/span&gt;&lt;/div&gt;&lt;div&gt;&lt;span class=&quot;hljs-keyword&quot;&gt;&lt;br&gt;&lt;/span&gt;&lt;/div&gt;&lt;div&gt;&lt;span class=&quot;hljs-keyword&quot;&gt;&lt;br&gt;&lt;/span&gt;&lt;/div&gt;&lt;div&gt;&lt;span class=&quot;hljs-keyword&quot;&gt;&lt;br&gt;&lt;/span&gt;&lt;/div&gt;&lt;div&gt;&lt;span class=&quot;hljs-keyword&quot;&gt;&lt;br&gt;&lt;/span&gt;&lt;/div&gt;&lt;div&gt;&lt;span class=&quot;hljs-keyword&quot;&gt;&lt;br&gt;&lt;/span&gt;&lt;/div&gt;&lt;div&gt;&lt;span class=&quot;hljs-keyword&quot;&gt;&lt;br&gt;&lt;/span&gt;&lt;/div&gt;&lt;div&gt;&lt;span class=&quot;hljs-keyword&quot;&gt;&lt;br&gt;&lt;/span&gt;&lt;/div&gt;&lt;div&gt;&lt;span class=&quot;hljs-keyword&quot;&gt;&lt;br&gt;&lt;/span&gt;&lt;/div&gt;&lt;div&gt;&lt;span class=&quot;hljs-keyword&quot;&gt;&lt;br&gt;&lt;/span&gt;&lt;/div&gt;&lt;div&gt;&lt;span class=&quot;hljs-keyword&quot;&gt;&lt;br&gt;&lt;/span&gt;&lt;/div&gt;" style="rounded=0;whiteSpace=wrap;html=1;" vertex="1" parent="1">
          <mxGeometry x="75" y="-2320" width="280" height="320" as="geometry" />
        </mxCell>
        <mxCell id="xoTzIHeCAV2_g0zYCG---74" style="edgeStyle=orthogonalEdgeStyle;rounded=0;orthogonalLoop=1;jettySize=auto;html=1;entryX=0.5;entryY=0;entryDx=0;entryDy=0;" edge="1" parent="1" source="xoTzIHeCAV2_g0zYCG---75" target="xoTzIHeCAV2_g0zYCG---78">
          <mxGeometry relative="1" as="geometry" />
        </mxCell>
        <mxCell id="xoTzIHeCAV2_g0zYCG---75" value="&lt;strong&gt;&amp;nbsp; Input&lt;/strong&gt;:&lt;br&gt;&lt;div style=&quot;text-align: center;&quot;&gt;&lt;span style=&quot;background-color: initial;&quot;&gt;&amp;nbsp; &amp;nbsp; &amp;nbsp; Base URL&amp;nbsp;&lt;/span&gt;&lt;span style=&quot;background-color: initial;&quot; class=&quot;hljs-keyword&quot;&gt;of&lt;/span&gt;&lt;span style=&quot;background-color: initial;&quot;&gt;&amp;nbsp;the website&lt;/span&gt;&lt;/div&gt;" style="rounded=1;whiteSpace=wrap;html=1;align=left;fillColor=#dae8fc;strokeColor=#6c8ebf;" vertex="1" parent="1">
          <mxGeometry x="125" y="-2230" width="180" height="40" as="geometry" />
        </mxCell>
        <mxCell id="xoTzIHeCAV2_g0zYCG---76" value="&amp;nbsp; &lt;b&gt;Output&lt;/b&gt;:&lt;blockquote style=&quot;margin: 0 0 0 40px; border: none; padding: 0px;&quot;&gt;&lt;div style=&quot;&quot;&gt;Raw materials dataset (CSV)&lt;/div&gt;&lt;/blockquote&gt;" style="rounded=1;whiteSpace=wrap;html=1;align=left;fillColor=#e1d5e7;strokeColor=#9673a6;" vertex="1" parent="1">
          <mxGeometry x="110" y="-2070" width="210" height="50" as="geometry" />
        </mxCell>
        <mxCell id="xoTzIHeCAV2_g0zYCG---77" value="" style="edgeStyle=orthogonalEdgeStyle;rounded=0;orthogonalLoop=1;jettySize=auto;html=1;" edge="1" parent="1" source="xoTzIHeCAV2_g0zYCG---78" target="xoTzIHeCAV2_g0zYCG---76">
          <mxGeometry relative="1" as="geometry" />
        </mxCell>
        <mxCell id="xoTzIHeCAV2_g0zYCG---78" value="&amp;nbsp;&amp;nbsp;&lt;b&gt;Processes&lt;/b&gt;:&lt;blockquote style=&quot;margin: 0 0 0 40px; border: none; padding: 0px;&quot;&gt;&lt;div style=&quot;&quot;&gt;Parse HTML &lt;span class=&quot;hljs-keyword&quot;&gt;for&lt;/span&gt; material properties&lt;/div&gt;&lt;/blockquote&gt;&lt;blockquote style=&quot;margin: 0 0 0 40px; border: none; padding: 0px;&quot;&gt;&lt;div style=&quot;&quot;&gt;Scrape tables across multiple pages&lt;/div&gt;&lt;div style=&quot;&quot;&gt;Store data &lt;span class=&quot;hljs-keyword&quot;&gt;in&lt;/span&gt; a structured DataFrame&lt;/div&gt;&lt;/blockquote&gt;" style="rounded=1;whiteSpace=wrap;html=1;align=left;fillColor=#ffe6cc;strokeColor=#d79b00;" vertex="1" parent="1">
          <mxGeometry x="90" y="-2170" width="250" height="80" as="geometry" />
        </mxCell>
        <mxCell id="xoTzIHeCAV2_g0zYCG---79" value="&lt;strong&gt;Objective&lt;/strong&gt;: Gather data" style="rounded=1;whiteSpace=wrap;html=1;fillColor=#d5e8d4;strokeColor=#82b366;" vertex="1" parent="1">
          <mxGeometry x="130" y="-2280" width="180" height="30" as="geometry" />
        </mxCell>
        <mxCell id="xoTzIHeCAV2_g0zYCG---81" value="&lt;font style=&quot;&quot;&gt;&lt;b&gt;Deep Learning (MLP)&amp;nbsp;&lt;/b&gt;&lt;b style=&quot;&quot;&gt;&lt;font&gt;Prediction &lt;span style=&quot;&quot; class=&quot;hljs-keyword&quot;&gt;Module&lt;/span&gt;&lt;/font&gt;&lt;/b&gt;&lt;/font&gt;&lt;div&gt;&lt;b&gt;&lt;br&gt;&lt;/b&gt;&lt;/div&gt;&lt;div&gt;&lt;b&gt;&lt;br&gt;&lt;/b&gt;&lt;/div&gt;&lt;div&gt;&lt;b&gt;&lt;br&gt;&lt;/b&gt;&lt;div&gt;&lt;span class=&quot;hljs-keyword&quot;&gt;&lt;br&gt;&lt;/span&gt;&lt;/div&gt;&lt;div&gt;&lt;span class=&quot;hljs-keyword&quot;&gt;&lt;br&gt;&lt;/span&gt;&lt;/div&gt;&lt;div&gt;&lt;span class=&quot;hljs-keyword&quot;&gt;&lt;br&gt;&lt;/span&gt;&lt;/div&gt;&lt;div&gt;&lt;br&gt;&lt;/div&gt;&lt;div&gt;&lt;span class=&quot;hljs-keyword&quot;&gt;&lt;br&gt;&lt;/span&gt;&lt;/div&gt;&lt;div&gt;&lt;span class=&quot;hljs-keyword&quot;&gt;&lt;br&gt;&lt;/span&gt;&lt;/div&gt;&lt;div&gt;&lt;span class=&quot;hljs-keyword&quot;&gt;&lt;br&gt;&lt;/span&gt;&lt;/div&gt;&lt;div&gt;&lt;span class=&quot;hljs-keyword&quot;&gt;&lt;br&gt;&lt;/span&gt;&lt;/div&gt;&lt;div&gt;&lt;span class=&quot;hljs-keyword&quot;&gt;&lt;br&gt;&lt;/span&gt;&lt;/div&gt;&lt;div&gt;&lt;span class=&quot;hljs-keyword&quot;&gt;&lt;br&gt;&lt;/span&gt;&lt;/div&gt;&lt;div&gt;&lt;span class=&quot;hljs-keyword&quot;&gt;&lt;br&gt;&lt;/span&gt;&lt;/div&gt;&lt;div&gt;&lt;span class=&quot;hljs-keyword&quot;&gt;&lt;br&gt;&lt;/span&gt;&lt;/div&gt;&lt;div&gt;&lt;span class=&quot;hljs-keyword&quot;&gt;&lt;br&gt;&lt;/span&gt;&lt;/div&gt;&lt;div&gt;&lt;span class=&quot;hljs-keyword&quot;&gt;&lt;br&gt;&lt;/span&gt;&lt;/div&gt;&lt;div&gt;&lt;span class=&quot;hljs-keyword&quot;&gt;&lt;br&gt;&lt;/span&gt;&lt;/div&gt;&lt;div&gt;&lt;span class=&quot;hljs-keyword&quot;&gt;&lt;br&gt;&lt;/span&gt;&lt;/div&gt;&lt;div&gt;&lt;span class=&quot;hljs-keyword&quot;&gt;&lt;br&gt;&lt;/span&gt;&lt;/div&gt;&lt;/div&gt;" style="rounded=0;whiteSpace=wrap;html=1;" vertex="1" parent="1">
          <mxGeometry x="430" y="-2320" width="310" height="320" as="geometry" />
        </mxCell>
        <mxCell id="xoTzIHeCAV2_g0zYCG---82" style="edgeStyle=orthogonalEdgeStyle;rounded=0;orthogonalLoop=1;jettySize=auto;html=1;entryX=0.5;entryY=0;entryDx=0;entryDy=0;" edge="1" parent="1" source="xoTzIHeCAV2_g0zYCG---83" target="xoTzIHeCAV2_g0zYCG---86">
          <mxGeometry relative="1" as="geometry" />
        </mxCell>
        <mxCell id="xoTzIHeCAV2_g0zYCG---83" value="&lt;div style=&quot;text-align: left;&quot;&gt;&lt;b style=&quot;background-color: initial;&quot;&gt;Input:&lt;/b&gt;&lt;/div&gt;&lt;div style=&quot;text-align: left;&quot;&gt;Raw materials dataset (CSV)&lt;/div&gt;" style="rounded=1;whiteSpace=wrap;html=1;align=center;fillColor=#dae8fc;strokeColor=#6c8ebf;" vertex="1" parent="1">
          <mxGeometry x="485" y="-2230" width="200" height="40" as="geometry" />
        </mxCell>
        <mxCell id="xoTzIHeCAV2_g0zYCG---84" value="&amp;nbsp; &lt;b&gt;Output:&lt;/b&gt;&lt;div&gt;&lt;span style=&quot;background-color: initial;&quot;&gt;&lt;b&gt;&amp;nbsp; &amp;nbsp;&amp;nbsp;&lt;/b&gt;Enhanced materials dataset (CSV)&lt;/span&gt;&lt;/div&gt;" style="rounded=1;whiteSpace=wrap;html=1;align=left;fillColor=#e1d5e7;strokeColor=#9673a6;" vertex="1" parent="1">
          <mxGeometry x="480" y="-2065" width="210" height="40" as="geometry" />
        </mxCell>
        <mxCell id="xoTzIHeCAV2_g0zYCG---85" value="" style="edgeStyle=orthogonalEdgeStyle;rounded=0;orthogonalLoop=1;jettySize=auto;html=1;" edge="1" parent="1" source="xoTzIHeCAV2_g0zYCG---86" target="xoTzIHeCAV2_g0zYCG---84">
          <mxGeometry relative="1" as="geometry" />
        </mxCell>
        <mxCell id="xoTzIHeCAV2_g0zYCG---86" value="&amp;nbsp;&amp;nbsp;&lt;b&gt;Processes:&lt;/b&gt;&lt;div style=&quot;&quot;&gt;&lt;span class=&quot;hljs-keyword&quot;&gt;&amp;nbsp; &amp;nbsp;- Normalize&lt;/span&gt; input features&lt;/div&gt;&lt;span style=&quot;background-color: initial;&quot;&gt;&amp;nbsp; &amp;nbsp;- Train MLP &lt;/span&gt;&lt;span style=&quot;background-color: initial;&quot; class=&quot;hljs-keyword&quot;&gt;to&lt;/span&gt;&lt;span style=&quot;background-color: initial;&quot;&gt; predict Durability&lt;/span&gt;&lt;span style=&quot;background-color: initial;&quot; class=&quot;hljs-operator&quot;&gt;/&lt;/span&gt;&lt;span style=&quot;background-color: initial;&quot;&gt;Price&lt;/span&gt;&lt;br&gt;&lt;div style=&quot;&quot;&gt;&amp;nbsp; &amp;nbsp;- Generate synthetic &lt;span class=&quot;hljs-string&quot;&gt;&#39;&lt;b&gt;&lt;i&gt;Durability&lt;/i&gt;&lt;/b&gt;&#39;&lt;/span&gt;&amp;nbsp;&amp;nbsp;&lt;/div&gt;&lt;div style=&quot;&quot;&gt;&lt;span class=&quot;hljs-operator&quot;&gt;&amp;nbsp; &amp;nbsp; &amp;nbsp;&amp;amp;&amp;nbsp;&amp;nbsp;&lt;/span&gt;&lt;span style=&quot;background-color: initial;&quot; class=&quot;hljs-string&quot;&gt;&#39;&lt;i&gt;&lt;b&gt;Price&lt;/b&gt;&lt;/i&gt;&#39;&lt;/span&gt;&lt;span style=&quot;background-color: initial;&quot;&gt; columns&lt;/span&gt;&lt;/div&gt;" style="rounded=1;whiteSpace=wrap;html=1;align=left;fillColor=#ffe6cc;strokeColor=#d79b00;" vertex="1" parent="1">
          <mxGeometry x="475" y="-2170" width="220" height="80" as="geometry" />
        </mxCell>
        <mxCell id="xoTzIHeCAV2_g0zYCG---87" value="&lt;strong&gt;Objective&lt;/strong&gt;: Generating synthetic features for durability and cost using a &lt;strong&gt;MLP&amp;nbsp;&lt;/strong&gt;model." style="rounded=1;whiteSpace=wrap;html=1;fillColor=#d5e8d4;strokeColor=#82b366;align=center;" vertex="1" parent="1">
          <mxGeometry x="445" y="-2285" width="280" height="40" as="geometry" />
        </mxCell>
        <mxCell id="xoTzIHeCAV2_g0zYCG---88" style="edgeStyle=orthogonalEdgeStyle;rounded=0;orthogonalLoop=1;jettySize=auto;html=1;exitX=0.5;exitY=1;exitDx=0;exitDy=0;entryX=0;entryY=0.5;entryDx=0;entryDy=0;" edge="1" parent="1" source="xoTzIHeCAV2_g0zYCG---76" target="xoTzIHeCAV2_g0zYCG---83">
          <mxGeometry relative="1" as="geometry">
            <Array as="points">
              <mxPoint x="215" y="-1980" />
              <mxPoint x="385" y="-1980" />
              <mxPoint x="385" y="-2210" />
            </Array>
          </mxGeometry>
        </mxCell>
        <mxCell id="xoTzIHeCAV2_g0zYCG---95" value="&lt;font&gt;&lt;b style=&quot;&quot;&gt;&lt;font style=&quot;&quot;&gt;Random Sampling&amp;nbsp;&lt;span style=&quot;&quot; class=&quot;hljs-operator&quot;&gt;&amp;amp;&lt;/span&gt;&amp;nbsp;Dataset S&lt;font style=&quot;&quot;&gt;plitti&lt;/font&gt;&lt;/font&gt;&lt;/b&gt;&lt;b style=&quot;&quot;&gt;&lt;font style=&quot;&quot;&gt;ng&lt;/font&gt;&lt;/b&gt;&lt;/font&gt;&lt;br&gt;&lt;div&gt;&lt;b&gt;&lt;br&gt;&lt;/b&gt;&lt;/div&gt;&lt;div&gt;&lt;b&gt;&lt;br&gt;&lt;/b&gt;&lt;/div&gt;&lt;div&gt;&lt;b&gt;&lt;br&gt;&lt;/b&gt;&lt;div&gt;&lt;span class=&quot;hljs-keyword&quot;&gt;&lt;br&gt;&lt;/span&gt;&lt;/div&gt;&lt;div&gt;&lt;span class=&quot;hljs-keyword&quot;&gt;&lt;br&gt;&lt;/span&gt;&lt;/div&gt;&lt;div&gt;&lt;span class=&quot;hljs-keyword&quot;&gt;&lt;br&gt;&lt;/span&gt;&lt;/div&gt;&lt;div&gt;&lt;br&gt;&lt;/div&gt;&lt;div&gt;&lt;span class=&quot;hljs-keyword&quot;&gt;&lt;br&gt;&lt;/span&gt;&lt;/div&gt;&lt;div&gt;&lt;span class=&quot;hljs-keyword&quot;&gt;&lt;br&gt;&lt;/span&gt;&lt;/div&gt;&lt;div&gt;&lt;span class=&quot;hljs-keyword&quot;&gt;&lt;br&gt;&lt;/span&gt;&lt;/div&gt;&lt;div&gt;&lt;span class=&quot;hljs-keyword&quot;&gt;&lt;br&gt;&lt;/span&gt;&lt;/div&gt;&lt;div&gt;&lt;span class=&quot;hljs-keyword&quot;&gt;&lt;br&gt;&lt;/span&gt;&lt;/div&gt;&lt;div&gt;&lt;span class=&quot;hljs-keyword&quot;&gt;&lt;br&gt;&lt;/span&gt;&lt;/div&gt;&lt;div&gt;&lt;span class=&quot;hljs-keyword&quot;&gt;&lt;br&gt;&lt;/span&gt;&lt;/div&gt;&lt;div&gt;&lt;span class=&quot;hljs-keyword&quot;&gt;&lt;br&gt;&lt;/span&gt;&lt;/div&gt;&lt;div&gt;&lt;span class=&quot;hljs-keyword&quot;&gt;&lt;br&gt;&lt;/span&gt;&lt;/div&gt;&lt;div&gt;&lt;span class=&quot;hljs-keyword&quot;&gt;&lt;br&gt;&lt;/span&gt;&lt;/div&gt;&lt;div&gt;&lt;span class=&quot;hljs-keyword&quot;&gt;&lt;br&gt;&lt;/span&gt;&lt;/div&gt;&lt;div&gt;&lt;span class=&quot;hljs-keyword&quot;&gt;&lt;br&gt;&lt;/span&gt;&lt;/div&gt;&lt;div&gt;&lt;span class=&quot;hljs-keyword&quot;&gt;&lt;br&gt;&lt;/span&gt;&lt;/div&gt;&lt;/div&gt;" style="rounded=0;whiteSpace=wrap;html=1;" vertex="1" parent="1">
          <mxGeometry x="790" y="-2320" width="310" height="320" as="geometry" />
        </mxCell>
        <mxCell id="xoTzIHeCAV2_g0zYCG---96" style="edgeStyle=orthogonalEdgeStyle;rounded=0;orthogonalLoop=1;jettySize=auto;html=1;entryX=0.5;entryY=0;entryDx=0;entryDy=0;" edge="1" parent="1" source="xoTzIHeCAV2_g0zYCG---97" target="xoTzIHeCAV2_g0zYCG---100">
          <mxGeometry relative="1" as="geometry" />
        </mxCell>
        <mxCell id="xoTzIHeCAV2_g0zYCG---97" value="&lt;div style=&quot;text-align: left;&quot;&gt;&lt;b style=&quot;background-color: initial;&quot;&gt;Input:&lt;/b&gt;&lt;/div&gt;&lt;div style=&quot;text-align: left;&quot;&gt;Enhanced materials dataset&lt;/div&gt;" style="rounded=1;whiteSpace=wrap;html=1;align=center;fillColor=#dae8fc;strokeColor=#6c8ebf;" vertex="1" parent="1">
          <mxGeometry x="857.5" y="-2230" width="175" height="40" as="geometry" />
        </mxCell>
        <mxCell id="xoTzIHeCAV2_g0zYCG---98" value="df_train.csv" style="rounded=1;whiteSpace=wrap;html=1;align=center;fillColor=#e1d5e7;strokeColor=#9673a6;" vertex="1" parent="1">
          <mxGeometry x="810" y="-2060" width="70" height="40" as="geometry" />
        </mxCell>
        <mxCell id="xoTzIHeCAV2_g0zYCG---99" value="" style="edgeStyle=orthogonalEdgeStyle;rounded=0;orthogonalLoop=1;jettySize=auto;html=1;" edge="1" parent="1" source="xoTzIHeCAV2_g0zYCG---100" target="xoTzIHeCAV2_g0zYCG---98">
          <mxGeometry relative="1" as="geometry">
            <Array as="points">
              <mxPoint x="945" y="-2080" />
              <mxPoint x="845" y="-2080" />
            </Array>
          </mxGeometry>
        </mxCell>
        <mxCell id="xoTzIHeCAV2_g0zYCG---105" style="edgeStyle=orthogonalEdgeStyle;rounded=0;orthogonalLoop=1;jettySize=auto;html=1;exitX=0.5;exitY=1;exitDx=0;exitDy=0;entryX=0.5;entryY=0;entryDx=0;entryDy=0;" edge="1" parent="1" source="xoTzIHeCAV2_g0zYCG---100" target="xoTzIHeCAV2_g0zYCG---103">
          <mxGeometry relative="1" as="geometry" />
        </mxCell>
        <mxCell id="xoTzIHeCAV2_g0zYCG---106" style="edgeStyle=orthogonalEdgeStyle;rounded=0;orthogonalLoop=1;jettySize=auto;html=1;entryX=0.5;entryY=0;entryDx=0;entryDy=0;" edge="1" parent="1" source="xoTzIHeCAV2_g0zYCG---100" target="xoTzIHeCAV2_g0zYCG---104">
          <mxGeometry relative="1" as="geometry">
            <Array as="points">
              <mxPoint x="945" y="-2080" />
              <mxPoint x="1053" y="-2080" />
              <mxPoint x="1053" y="-2060" />
            </Array>
          </mxGeometry>
        </mxCell>
        <mxCell id="xoTzIHeCAV2_g0zYCG---100" value="&amp;nbsp;&amp;nbsp;&lt;b&gt;Processes:&lt;/b&gt;&lt;div style=&quot;&quot;&gt;&lt;span class=&quot;hljs-keyword&quot;&gt;&amp;nbsp; &amp;nbsp;-&amp;nbsp;&lt;/span&gt;&lt;span style=&quot;background-color: initial;&quot;&gt;Shuffle&amp;nbsp;&lt;/span&gt;&lt;span style=&quot;background-color: initial;&quot; class=&quot;hljs-keyword&quot;&gt;and&lt;/span&gt;&lt;span style=&quot;background-color: initial;&quot;&gt;&amp;nbsp;&lt;/span&gt;&lt;span style=&quot;background-color: initial;&quot;&gt;split&lt;/span&gt;&lt;span style=&quot;background-color: initial;&quot;&gt;&amp;nbsp;&lt;/span&gt;&lt;span style=&quot;background-color: initial;&quot; class=&quot;hljs-keyword&quot;&gt;into&lt;/span&gt;&lt;span style=&quot;background-color: initial;&quot;&gt;&amp;nbsp;&lt;/span&gt;&lt;span style=&quot;background-color: initial;&quot; class=&quot;hljs-number&quot;&gt;3&lt;/span&gt;&lt;span style=&quot;background-color: initial;&quot;&gt;&amp;nbsp;&lt;/span&gt;&lt;span style=&quot;background-color: initial;&quot;&gt;datasets:&lt;/span&gt;&lt;/div&gt;&lt;blockquote style=&quot;margin: 0px 0px 0px 40px; border: none; padding: 0px;&quot;&gt;Train df&lt;/blockquote&gt;&lt;blockquote style=&quot;margin: 0px 0px 0px 40px; border: none; padding: 0px;&quot;&gt;&lt;span style=&quot;background-color: initial;&quot;&gt;Test df&lt;/span&gt;&lt;br&gt;&lt;div&gt;GA df&lt;/div&gt;&lt;/blockquote&gt;" style="rounded=1;whiteSpace=wrap;html=1;align=left;fillColor=#ffe6cc;strokeColor=#d79b00;" vertex="1" parent="1">
          <mxGeometry x="835" y="-2170" width="220" height="80" as="geometry" />
        </mxCell>
        <mxCell id="xoTzIHeCAV2_g0zYCG---101" value="&lt;strong&gt;Objective&lt;/strong&gt;: Sampling 3 Datasets for train ML models, Test ML models and for GA." style="rounded=1;whiteSpace=wrap;html=1;fillColor=#d5e8d4;strokeColor=#82b366;align=center;" vertex="1" parent="1">
          <mxGeometry x="805" y="-2285" width="280" height="40" as="geometry" />
        </mxCell>
        <mxCell id="xoTzIHeCAV2_g0zYCG---102" style="edgeStyle=orthogonalEdgeStyle;rounded=0;orthogonalLoop=1;jettySize=auto;html=1;entryX=0;entryY=0.5;entryDx=0;entryDy=0;" edge="1" parent="1" source="xoTzIHeCAV2_g0zYCG---84" target="xoTzIHeCAV2_g0zYCG---97">
          <mxGeometry relative="1" as="geometry" />
        </mxCell>
        <mxCell id="xoTzIHeCAV2_g0zYCG---103" value="df_test.csv" style="rounded=1;whiteSpace=wrap;html=1;align=center;fillColor=#e1d5e7;strokeColor=#9673a6;" vertex="1" parent="1">
          <mxGeometry x="910" y="-2060" width="70" height="40" as="geometry" />
        </mxCell>
        <mxCell id="xoTzIHeCAV2_g0zYCG---104" value="df_ga.csv" style="rounded=1;whiteSpace=wrap;html=1;align=center;fillColor=#e1d5e7;strokeColor=#9673a6;" vertex="1" parent="1">
          <mxGeometry x="1020" y="-2060" width="65" height="40" as="geometry" />
        </mxCell>
        <mxCell id="xoTzIHeCAV2_g0zYCG---113" value="&lt;b style=&quot;&quot;&gt;&lt;font&gt;Dataset Expansion&amp;nbsp;&lt;span style=&quot;&quot; class=&quot;hljs-keyword&quot;&gt;for&lt;/span&gt;&amp;nbsp;GA&amp;nbsp;&lt;span style=&quot;&quot; class=&quot;hljs-keyword&quot;&gt;Module&lt;/span&gt;&lt;/font&gt;&lt;/b&gt;&lt;br&gt;&lt;div&gt;&lt;b&gt;&lt;br&gt;&lt;/b&gt;&lt;/div&gt;&lt;div&gt;&lt;b&gt;&lt;br&gt;&lt;/b&gt;&lt;/div&gt;&lt;div&gt;&lt;b&gt;&lt;br&gt;&lt;/b&gt;&lt;div&gt;&lt;span class=&quot;hljs-keyword&quot;&gt;&lt;br&gt;&lt;/span&gt;&lt;/div&gt;&lt;div&gt;&lt;span class=&quot;hljs-keyword&quot;&gt;&lt;br&gt;&lt;/span&gt;&lt;/div&gt;&lt;div&gt;&lt;span class=&quot;hljs-keyword&quot;&gt;&lt;br&gt;&lt;/span&gt;&lt;/div&gt;&lt;div&gt;&lt;span class=&quot;hljs-keyword&quot;&gt;&lt;br&gt;&lt;/span&gt;&lt;/div&gt;&lt;div&gt;&lt;span class=&quot;hljs-keyword&quot;&gt;&lt;br&gt;&lt;/span&gt;&lt;/div&gt;&lt;div&gt;&lt;br&gt;&lt;/div&gt;&lt;div&gt;&lt;span class=&quot;hljs-keyword&quot;&gt;&lt;br&gt;&lt;/span&gt;&lt;/div&gt;&lt;div&gt;&lt;span class=&quot;hljs-keyword&quot;&gt;&lt;br&gt;&lt;/span&gt;&lt;/div&gt;&lt;div&gt;&lt;span class=&quot;hljs-keyword&quot;&gt;&lt;br&gt;&lt;/span&gt;&lt;/div&gt;&lt;div&gt;&lt;span class=&quot;hljs-keyword&quot;&gt;&lt;br&gt;&lt;/span&gt;&lt;/div&gt;&lt;div&gt;&lt;span class=&quot;hljs-keyword&quot;&gt;&lt;br&gt;&lt;/span&gt;&lt;/div&gt;&lt;div&gt;&lt;span class=&quot;hljs-keyword&quot;&gt;&lt;br&gt;&lt;/span&gt;&lt;/div&gt;&lt;div&gt;&lt;span class=&quot;hljs-keyword&quot;&gt;&lt;br&gt;&lt;/span&gt;&lt;/div&gt;&lt;div&gt;&lt;span class=&quot;hljs-keyword&quot;&gt;&lt;br&gt;&lt;/span&gt;&lt;/div&gt;&lt;div&gt;&lt;span class=&quot;hljs-keyword&quot;&gt;&lt;br&gt;&lt;/span&gt;&lt;/div&gt;&lt;div&gt;&lt;span class=&quot;hljs-keyword&quot;&gt;&lt;br&gt;&lt;/span&gt;&lt;/div&gt;&lt;div&gt;&lt;span class=&quot;hljs-keyword&quot;&gt;&lt;br&gt;&lt;/span&gt;&lt;/div&gt;&lt;div&gt;&lt;span class=&quot;hljs-keyword&quot;&gt;&lt;br&gt;&lt;/span&gt;&lt;/div&gt;&lt;div&gt;&lt;span class=&quot;hljs-keyword&quot;&gt;&lt;br&gt;&lt;/span&gt;&lt;/div&gt;&lt;/div&gt;" style="rounded=0;whiteSpace=wrap;html=1;" vertex="1" parent="1">
          <mxGeometry x="770" y="-1940" width="330" height="360" as="geometry" />
        </mxCell>
        <mxCell id="xoTzIHeCAV2_g0zYCG---114" style="edgeStyle=orthogonalEdgeStyle;rounded=0;orthogonalLoop=1;jettySize=auto;html=1;entryX=0.5;entryY=0;entryDx=0;entryDy=0;" edge="1" parent="1" source="xoTzIHeCAV2_g0zYCG---115" target="xoTzIHeCAV2_g0zYCG---120">
          <mxGeometry relative="1" as="geometry" />
        </mxCell>
        <mxCell id="xoTzIHeCAV2_g0zYCG---115" value="&lt;div style=&quot;text-align: left;&quot;&gt;&lt;b style=&quot;background-color: initial;&quot;&gt;Input:&lt;/b&gt;&lt;/div&gt;&lt;div style=&quot;text-align: left;&quot;&gt;Dataset&lt;/div&gt;" style="rounded=1;whiteSpace=wrap;html=1;align=center;fillColor=#dae8fc;strokeColor=#6c8ebf;" vertex="1" parent="1">
          <mxGeometry x="898.75" y="-1850" width="72.5" height="40" as="geometry" />
        </mxCell>
        <mxCell id="xoTzIHeCAV2_g0zYCG---116" value="exp_df_train.csv" style="rounded=1;whiteSpace=wrap;html=1;align=center;fillColor=#e1d5e7;strokeColor=#9673a6;" vertex="1" parent="1">
          <mxGeometry x="785" y="-1630" width="100" height="30" as="geometry" />
        </mxCell>
        <mxCell id="xoTzIHeCAV2_g0zYCG---124" style="edgeStyle=orthogonalEdgeStyle;rounded=0;orthogonalLoop=1;jettySize=auto;html=1;entryX=0.5;entryY=0;entryDx=0;entryDy=0;" edge="1" parent="1" source="xoTzIHeCAV2_g0zYCG---120" target="xoTzIHeCAV2_g0zYCG---122">
          <mxGeometry relative="1" as="geometry" />
        </mxCell>
        <mxCell id="xoTzIHeCAV2_g0zYCG---125" style="edgeStyle=orthogonalEdgeStyle;rounded=0;orthogonalLoop=1;jettySize=auto;html=1;" edge="1" parent="1" source="xoTzIHeCAV2_g0zYCG---120" target="xoTzIHeCAV2_g0zYCG---116">
          <mxGeometry relative="1" as="geometry" />
        </mxCell>
        <mxCell id="xoTzIHeCAV2_g0zYCG---126" style="edgeStyle=orthogonalEdgeStyle;rounded=0;orthogonalLoop=1;jettySize=auto;html=1;" edge="1" parent="1" source="xoTzIHeCAV2_g0zYCG---120" target="xoTzIHeCAV2_g0zYCG---123">
          <mxGeometry relative="1" as="geometry" />
        </mxCell>
        <mxCell id="xoTzIHeCAV2_g0zYCG---120" value="&amp;nbsp; &amp;nbsp;&lt;b&gt;Processes:&lt;/b&gt;&lt;div style=&quot;&quot;&gt;&lt;span style=&quot;background-color: initial;&quot;&gt;&amp;nbsp; &amp;nbsp; - Generate &lt;b&gt;&lt;i&gt;thickness&lt;/i&gt;&lt;/b&gt;&amp;nbsp;&lt;/span&gt;&lt;span style=&quot;background-color: initial;&quot; class=&quot;hljs-keyword&quot;&gt;using&lt;/span&gt;&lt;span style=&quot;background-color: initial;&quot;&gt;:&lt;/span&gt;&lt;/div&gt;&lt;blockquote style=&quot;margin: 0px 0px 0px 40px; border: none; padding: 0px;&quot;&gt;&lt;span class=&quot;hljs-keyword&quot;&gt;Range&lt;/span&gt;&lt;span class=&quot;hljs-operator&quot;&gt;-&lt;/span&gt;based approach&lt;br&gt;Physics&lt;span class=&quot;hljs-operator&quot;&gt;-&lt;/span&gt;based calculations&lt;/blockquote&gt;&lt;span style=&quot;background-color: initial;&quot;&gt;&amp;nbsp; &amp;nbsp; - Derive&amp;nbsp;&lt;/span&gt;&lt;span style=&quot;background-color: initial;&quot; class=&quot;hljs-keyword&quot;&gt;new&lt;/span&gt;&lt;span style=&quot;background-color: initial;&quot;&gt;&amp;nbsp;features:&lt;/span&gt;&lt;br&gt;&lt;blockquote style=&quot;margin: 0px 0px 0px 40px; border: none; padding: 0px;&quot;&gt;&lt;i&gt;&lt;b&gt;Weight &lt;/b&gt;=&amp;nbsp;&lt;/i&gt;Material Density × Thickness × Area.&lt;i&gt;&lt;br&gt;&lt;b&gt;&lt;span style=&quot;background-color: initial;&quot;&gt;&lt;/span&gt;Cost &lt;/b&gt;=&amp;nbsp;&lt;/i&gt;&lt;span style=&quot;background-color: initial;&quot;&gt;Price per m³ × Thickness × Area.&lt;/span&gt;&lt;/blockquote&gt;" style="rounded=1;whiteSpace=wrap;html=1;align=left;fillColor=#ffe6cc;strokeColor=#d79b00;" vertex="1" parent="1">
          <mxGeometry x="785" y="-1790" width="300" height="110" as="geometry" />
        </mxCell>
        <mxCell id="xoTzIHeCAV2_g0zYCG---121" value="&lt;strong&gt;Objective&lt;/strong&gt;: Expand the datasets with additional physics-based and range-based features." style="rounded=1;whiteSpace=wrap;html=1;fillColor=#d5e8d4;strokeColor=#82b366;align=center;" vertex="1" parent="1">
          <mxGeometry x="795" y="-1900" width="280" height="40" as="geometry" />
        </mxCell>
        <mxCell id="xoTzIHeCAV2_g0zYCG---122" value="exp_df_test.csv" style="rounded=1;whiteSpace=wrap;html=1;align=center;fillColor=#e1d5e7;strokeColor=#9673a6;" vertex="1" parent="1">
          <mxGeometry x="895" y="-1630" width="90" height="30" as="geometry" />
        </mxCell>
        <mxCell id="xoTzIHeCAV2_g0zYCG---123" value="exp_df_ga.csv" style="rounded=1;whiteSpace=wrap;html=1;align=center;fillColor=#e1d5e7;strokeColor=#9673a6;" vertex="1" parent="1">
          <mxGeometry x="995" y="-1630" width="90" height="30" as="geometry" />
        </mxCell>
        <mxCell id="xoTzIHeCAV2_g0zYCG---128" value="" style="endArrow=none;html=1;rounded=0;entryX=0.5;entryY=1;entryDx=0;entryDy=0;" edge="1" parent="1" target="xoTzIHeCAV2_g0zYCG---103">
          <mxGeometry width="50" height="50" relative="1" as="geometry">
            <mxPoint x="945" y="-1980" as="sourcePoint" />
            <mxPoint x="790" y="-1920" as="targetPoint" />
          </mxGeometry>
        </mxCell>
        <mxCell id="xoTzIHeCAV2_g0zYCG---129" value="" style="endArrow=none;html=1;rounded=0;entryX=0.5;entryY=1;entryDx=0;entryDy=0;" edge="1" parent="1">
          <mxGeometry width="50" height="50" relative="1" as="geometry">
            <mxPoint x="844.52" y="-1980" as="sourcePoint" />
            <mxPoint x="844.52" y="-2020" as="targetPoint" />
          </mxGeometry>
        </mxCell>
        <mxCell id="xoTzIHeCAV2_g0zYCG---130" value="" style="endArrow=none;html=1;rounded=0;entryX=0.5;entryY=1;entryDx=0;entryDy=0;" edge="1" parent="1">
          <mxGeometry width="50" height="50" relative="1" as="geometry">
            <mxPoint x="1055" y="-1980" as="sourcePoint" />
            <mxPoint x="1055" y="-2020" as="targetPoint" />
          </mxGeometry>
        </mxCell>
        <mxCell id="xoTzIHeCAV2_g0zYCG---131" value="" style="endArrow=none;html=1;rounded=0;" edge="1" parent="1">
          <mxGeometry width="50" height="50" relative="1" as="geometry">
            <mxPoint x="844" y="-1980" as="sourcePoint" />
            <mxPoint x="1055" y="-1980" as="targetPoint" />
          </mxGeometry>
        </mxCell>
        <mxCell id="xoTzIHeCAV2_g0zYCG---132" style="edgeStyle=orthogonalEdgeStyle;rounded=0;orthogonalLoop=1;jettySize=auto;html=1;entryX=0;entryY=0.5;entryDx=0;entryDy=0;exitX=0.5;exitY=1;exitDx=0;exitDy=0;" edge="1" parent="1" source="xoTzIHeCAV2_g0zYCG---103" target="xoTzIHeCAV2_g0zYCG---115">
          <mxGeometry relative="1" as="geometry">
            <Array as="points">
              <mxPoint x="945" y="-1960" />
              <mxPoint x="750" y="-1960" />
              <mxPoint x="750" y="-1830" />
            </Array>
          </mxGeometry>
        </mxCell>
        <mxCell id="xoTzIHeCAV2_g0zYCG---139" value="&lt;b style=&quot;&quot;&gt;&lt;font&gt;Data Preprocessing&amp;nbsp;&lt;span style=&quot;&quot; class=&quot;hljs-keyword&quot;&gt;Module&lt;/span&gt;&lt;/font&gt;&lt;/b&gt;&lt;br&gt;&lt;div&gt;&lt;b&gt;&lt;br&gt;&lt;/b&gt;&lt;/div&gt;&lt;div&gt;&lt;b&gt;&lt;br&gt;&lt;/b&gt;&lt;/div&gt;&lt;div&gt;&lt;b&gt;&lt;br&gt;&lt;/b&gt;&lt;div&gt;&lt;span class=&quot;hljs-keyword&quot;&gt;&lt;br&gt;&lt;/span&gt;&lt;/div&gt;&lt;div&gt;&lt;span class=&quot;hljs-keyword&quot;&gt;&lt;br&gt;&lt;/span&gt;&lt;/div&gt;&lt;div&gt;&lt;br&gt;&lt;/div&gt;&lt;div&gt;&lt;span class=&quot;hljs-keyword&quot;&gt;&lt;br&gt;&lt;/span&gt;&lt;/div&gt;&lt;div&gt;&lt;span class=&quot;hljs-keyword&quot;&gt;&lt;br&gt;&lt;/span&gt;&lt;/div&gt;&lt;div&gt;&lt;span class=&quot;hljs-keyword&quot;&gt;&lt;br&gt;&lt;/span&gt;&lt;/div&gt;&lt;div&gt;&lt;span class=&quot;hljs-keyword&quot;&gt;&lt;br&gt;&lt;/span&gt;&lt;/div&gt;&lt;div&gt;&lt;span class=&quot;hljs-keyword&quot;&gt;&lt;br&gt;&lt;/span&gt;&lt;/div&gt;&lt;div&gt;&lt;span class=&quot;hljs-keyword&quot;&gt;&lt;br&gt;&lt;/span&gt;&lt;/div&gt;&lt;div&gt;&lt;span class=&quot;hljs-keyword&quot;&gt;&lt;br&gt;&lt;/span&gt;&lt;/div&gt;&lt;div&gt;&lt;span class=&quot;hljs-keyword&quot;&gt;&lt;br&gt;&lt;/span&gt;&lt;/div&gt;&lt;div&gt;&lt;span class=&quot;hljs-keyword&quot;&gt;&lt;br&gt;&lt;/span&gt;&lt;/div&gt;&lt;div&gt;&lt;span class=&quot;hljs-keyword&quot;&gt;&lt;br&gt;&lt;/span&gt;&lt;/div&gt;&lt;div&gt;&lt;span class=&quot;hljs-keyword&quot;&gt;&lt;br&gt;&lt;/span&gt;&lt;/div&gt;&lt;div&gt;&lt;span class=&quot;hljs-keyword&quot;&gt;&lt;br&gt;&lt;/span&gt;&lt;/div&gt;&lt;div&gt;&lt;span class=&quot;hljs-keyword&quot;&gt;&lt;br&gt;&lt;/span&gt;&lt;/div&gt;&lt;/div&gt;" style="rounded=0;whiteSpace=wrap;html=1;" vertex="1" parent="1">
          <mxGeometry x="365" y="-1940" width="330" height="320" as="geometry" />
        </mxCell>
        <mxCell id="xoTzIHeCAV2_g0zYCG---140" style="edgeStyle=orthogonalEdgeStyle;rounded=0;orthogonalLoop=1;jettySize=auto;html=1;entryX=0.5;entryY=0;entryDx=0;entryDy=0;" edge="1" parent="1" source="xoTzIHeCAV2_g0zYCG---141" target="xoTzIHeCAV2_g0zYCG---146">
          <mxGeometry relative="1" as="geometry" />
        </mxCell>
        <mxCell id="xoTzIHeCAV2_g0zYCG---141" value="&lt;div style=&quot;text-align: left;&quot;&gt;&lt;b style=&quot;background-color: initial;&quot;&gt;Input:&lt;/b&gt;&lt;/div&gt;&lt;div style=&quot;text-align: left;&quot;&gt;Dataset&lt;/div&gt;" style="rounded=1;whiteSpace=wrap;html=1;align=center;fillColor=#dae8fc;strokeColor=#6c8ebf;" vertex="1" parent="1">
          <mxGeometry x="493.75" y="-1850" width="72.5" height="40" as="geometry" />
        </mxCell>
        <mxCell id="xoTzIHeCAV2_g0zYCG---142" value="scal_df_train.csv" style="rounded=1;whiteSpace=wrap;html=1;align=center;fillColor=#e1d5e7;strokeColor=#9673a6;" vertex="1" parent="1">
          <mxGeometry x="380" y="-1670" width="100" height="30" as="geometry" />
        </mxCell>
        <mxCell id="xoTzIHeCAV2_g0zYCG---143" style="edgeStyle=orthogonalEdgeStyle;rounded=0;orthogonalLoop=1;jettySize=auto;html=1;entryX=0.5;entryY=0;entryDx=0;entryDy=0;" edge="1" parent="1" source="xoTzIHeCAV2_g0zYCG---146" target="xoTzIHeCAV2_g0zYCG---148">
          <mxGeometry relative="1" as="geometry">
            <Array as="points">
              <mxPoint x="530" y="-1700" />
              <mxPoint x="535" y="-1700" />
            </Array>
          </mxGeometry>
        </mxCell>
        <mxCell id="xoTzIHeCAV2_g0zYCG---144" style="edgeStyle=orthogonalEdgeStyle;rounded=0;orthogonalLoop=1;jettySize=auto;html=1;" edge="1" parent="1" source="xoTzIHeCAV2_g0zYCG---146" target="xoTzIHeCAV2_g0zYCG---142">
          <mxGeometry relative="1" as="geometry">
            <Array as="points">
              <mxPoint x="530" y="-1700" />
              <mxPoint x="430" y="-1700" />
            </Array>
          </mxGeometry>
        </mxCell>
        <mxCell id="xoTzIHeCAV2_g0zYCG---145" style="edgeStyle=orthogonalEdgeStyle;rounded=0;orthogonalLoop=1;jettySize=auto;html=1;" edge="1" parent="1" source="xoTzIHeCAV2_g0zYCG---146" target="xoTzIHeCAV2_g0zYCG---149">
          <mxGeometry relative="1" as="geometry">
            <Array as="points">
              <mxPoint x="530" y="-1700" />
              <mxPoint x="635" y="-1700" />
            </Array>
          </mxGeometry>
        </mxCell>
        <mxCell id="xoTzIHeCAV2_g0zYCG---146" value="&amp;nbsp; &amp;nbsp;&lt;b&gt;Processes:&lt;/b&gt;&lt;div style=&quot;&quot;&gt;&lt;span style=&quot;background-color: initial;&quot;&gt;&amp;nbsp; &amp;nbsp; -&amp;nbsp;&lt;/span&gt;&lt;span style=&quot;background-color: initial;&quot;&gt;Scale numerical data&lt;/span&gt;&lt;/div&gt;&lt;div style=&quot;&quot;&gt;&lt;span style=&quot;background-color: initial;&quot;&gt;&amp;nbsp; &amp;nbsp; - Encode categorical features&lt;/span&gt;&lt;/div&gt;" style="rounded=1;whiteSpace=wrap;html=1;align=left;fillColor=#ffe6cc;strokeColor=#d79b00;" vertex="1" parent="1">
          <mxGeometry x="440" y="-1783" width="180" height="60" as="geometry" />
        </mxCell>
        <mxCell id="xoTzIHeCAV2_g0zYCG---147" value="&lt;strong&gt;Objective&lt;/strong&gt;: Preprocess the datasets to feed into the ML and GA pipeline." style="rounded=1;whiteSpace=wrap;html=1;fillColor=#d5e8d4;strokeColor=#82b366;align=center;" vertex="1" parent="1">
          <mxGeometry x="390" y="-1900" width="280" height="40" as="geometry" />
        </mxCell>
        <mxCell id="xoTzIHeCAV2_g0zYCG---245" style="edgeStyle=orthogonalEdgeStyle;rounded=0;orthogonalLoop=1;jettySize=auto;html=1;" edge="1" parent="1" source="xoTzIHeCAV2_g0zYCG---148" target="xoTzIHeCAV2_g0zYCG---244">
          <mxGeometry relative="1" as="geometry" />
        </mxCell>
        <mxCell id="xoTzIHeCAV2_g0zYCG---148" value="scal_df_test.csv" style="rounded=1;whiteSpace=wrap;html=1;align=center;fillColor=#e1d5e7;strokeColor=#9673a6;" vertex="1" parent="1">
          <mxGeometry x="490" y="-1670" width="90" height="30" as="geometry" />
        </mxCell>
        <mxCell id="xoTzIHeCAV2_g0zYCG---149" value="scal_df_ga.csv" style="rounded=1;whiteSpace=wrap;html=1;align=center;fillColor=#e1d5e7;strokeColor=#9673a6;" vertex="1" parent="1">
          <mxGeometry x="590" y="-1670" width="90" height="30" as="geometry" />
        </mxCell>
        <mxCell id="xoTzIHeCAV2_g0zYCG---150" value="" style="endArrow=none;html=1;rounded=0;entryX=0.5;entryY=1;entryDx=0;entryDy=0;" edge="1" parent="1">
          <mxGeometry width="50" height="50" relative="1" as="geometry">
            <mxPoint x="834.52" y="-1560" as="sourcePoint" />
            <mxPoint x="834.52" y="-1600" as="targetPoint" />
          </mxGeometry>
        </mxCell>
        <mxCell id="xoTzIHeCAV2_g0zYCG---151" value="" style="endArrow=none;html=1;rounded=0;entryX=0.5;entryY=1;entryDx=0;entryDy=0;" edge="1" parent="1">
          <mxGeometry width="50" height="50" relative="1" as="geometry">
            <mxPoint x="1045" y="-1560" as="sourcePoint" />
            <mxPoint x="1045" y="-1600" as="targetPoint" />
          </mxGeometry>
        </mxCell>
        <mxCell id="xoTzIHeCAV2_g0zYCG---152" value="" style="endArrow=none;html=1;rounded=0;" edge="1" parent="1">
          <mxGeometry width="50" height="50" relative="1" as="geometry">
            <mxPoint x="834" y="-1560" as="sourcePoint" />
            <mxPoint x="1045" y="-1560" as="targetPoint" />
          </mxGeometry>
        </mxCell>
        <mxCell id="xoTzIHeCAV2_g0zYCG---153" style="edgeStyle=orthogonalEdgeStyle;rounded=0;orthogonalLoop=1;jettySize=auto;html=1;entryX=1;entryY=0.5;entryDx=0;entryDy=0;exitX=0.5;exitY=1;exitDx=0;exitDy=0;" edge="1" parent="1" target="xoTzIHeCAV2_g0zYCG---141">
          <mxGeometry relative="1" as="geometry">
            <mxPoint x="935" y="-1600" as="sourcePoint" />
            <mxPoint x="889" y="-1410" as="targetPoint" />
            <Array as="points">
              <mxPoint x="940" y="-1600" />
              <mxPoint x="940" y="-1540" />
              <mxPoint x="720" y="-1540" />
              <mxPoint x="720" y="-1830" />
            </Array>
          </mxGeometry>
        </mxCell>
        <mxCell id="xoTzIHeCAV2_g0zYCG---154" value="&lt;b&gt;Surrogate Modeling (ML)&lt;font&gt;&amp;nbsp;&lt;span style=&quot;&quot; class=&quot;hljs-keyword&quot;&gt;Module&lt;/span&gt;&lt;/font&gt;&lt;/b&gt;&lt;br&gt;&lt;div&gt;&lt;b&gt;&lt;br&gt;&lt;/b&gt;&lt;/div&gt;&lt;div&gt;&lt;b&gt;&lt;br&gt;&lt;/b&gt;&lt;/div&gt;&lt;div&gt;&lt;b&gt;&lt;br&gt;&lt;/b&gt;&lt;div&gt;&lt;span class=&quot;hljs-keyword&quot;&gt;&lt;br&gt;&lt;/span&gt;&lt;/div&gt;&lt;div&gt;&lt;span class=&quot;hljs-keyword&quot;&gt;&lt;br&gt;&lt;/span&gt;&lt;/div&gt;&lt;div&gt;&lt;span class=&quot;hljs-keyword&quot;&gt;&lt;br&gt;&lt;/span&gt;&lt;/div&gt;&lt;div&gt;&lt;span class=&quot;hljs-keyword&quot;&gt;&lt;br&gt;&lt;/span&gt;&lt;/div&gt;&lt;div&gt;&lt;span class=&quot;hljs-keyword&quot;&gt;&lt;br&gt;&lt;/span&gt;&lt;/div&gt;&lt;div&gt;&lt;span class=&quot;hljs-keyword&quot;&gt;&lt;br&gt;&lt;/span&gt;&lt;/div&gt;&lt;div&gt;&lt;span class=&quot;hljs-keyword&quot;&gt;&lt;br&gt;&lt;/span&gt;&lt;/div&gt;&lt;div&gt;&lt;span class=&quot;hljs-keyword&quot;&gt;&lt;br&gt;&lt;/span&gt;&lt;/div&gt;&lt;div&gt;&lt;br&gt;&lt;/div&gt;&lt;div&gt;&lt;span class=&quot;hljs-keyword&quot;&gt;&lt;br&gt;&lt;/span&gt;&lt;/div&gt;&lt;div&gt;&lt;span class=&quot;hljs-keyword&quot;&gt;&lt;br&gt;&lt;/span&gt;&lt;/div&gt;&lt;div&gt;&lt;span class=&quot;hljs-keyword&quot;&gt;&lt;br&gt;&lt;/span&gt;&lt;/div&gt;&lt;div&gt;&lt;span class=&quot;hljs-keyword&quot;&gt;&lt;br&gt;&lt;/span&gt;&lt;/div&gt;&lt;div&gt;&lt;span class=&quot;hljs-keyword&quot;&gt;&lt;br&gt;&lt;/span&gt;&lt;/div&gt;&lt;div&gt;&lt;span class=&quot;hljs-keyword&quot;&gt;&lt;br&gt;&lt;/span&gt;&lt;/div&gt;&lt;div&gt;&lt;span class=&quot;hljs-keyword&quot;&gt;&lt;br&gt;&lt;/span&gt;&lt;/div&gt;&lt;div&gt;&lt;span class=&quot;hljs-keyword&quot;&gt;&lt;br&gt;&lt;/span&gt;&lt;/div&gt;&lt;div&gt;&lt;span class=&quot;hljs-keyword&quot;&gt;&lt;br&gt;&lt;/span&gt;&lt;/div&gt;&lt;div&gt;&lt;span class=&quot;hljs-keyword&quot;&gt;&lt;br&gt;&lt;/span&gt;&lt;/div&gt;&lt;div&gt;&lt;span class=&quot;hljs-keyword&quot;&gt;&lt;br&gt;&lt;/span&gt;&lt;/div&gt;&lt;div&gt;&lt;span class=&quot;hljs-keyword&quot;&gt;&lt;br&gt;&lt;/span&gt;&lt;/div&gt;&lt;div&gt;&lt;span class=&quot;hljs-keyword&quot;&gt;&lt;br&gt;&lt;/span&gt;&lt;/div&gt;&lt;/div&gt;" style="rounded=0;whiteSpace=wrap;html=1;" vertex="1" parent="1">
          <mxGeometry x="-25" y="-1960" width="330" height="400" as="geometry" />
        </mxCell>
        <mxCell id="xoTzIHeCAV2_g0zYCG---155" style="edgeStyle=orthogonalEdgeStyle;rounded=0;orthogonalLoop=1;jettySize=auto;html=1;entryX=0.5;entryY=0;entryDx=0;entryDy=0;" edge="1" parent="1" source="xoTzIHeCAV2_g0zYCG---156" target="xoTzIHeCAV2_g0zYCG---161">
          <mxGeometry relative="1" as="geometry" />
        </mxCell>
        <mxCell id="xoTzIHeCAV2_g0zYCG---156" value="&lt;div style=&quot;text-align: left;&quot;&gt;&lt;b style=&quot;background-color: initial;&quot;&gt;Input:&lt;/b&gt;&lt;/div&gt;&lt;div style=&quot;text-align: left;&quot;&gt;Dataset&lt;/div&gt;" style="rounded=1;whiteSpace=wrap;html=1;align=center;fillColor=#dae8fc;strokeColor=#6c8ebf;" vertex="1" parent="1">
          <mxGeometry x="103.75" y="-1870" width="72.5" height="40" as="geometry" />
        </mxCell>
        <mxCell id="xoTzIHeCAV2_g0zYCG---157" value="&lt;span style=&quot;&quot;&gt;&lt;b&gt;&amp;nbsp; Output:&lt;/b&gt;&lt;/span&gt;&lt;div style=&quot;text-align: center;&quot;&gt;&lt;span style=&quot;background-color: initial;&quot;&gt;&lt;b&gt;&amp;nbsp; &amp;nbsp;&lt;/b&gt;Trained&amp;nbsp;&lt;/span&gt;&lt;span style=&quot;background-color: initial; text-align: left;&quot;&gt;Surrogate&amp;nbsp;&lt;/span&gt;&lt;span style=&quot;background-color: initial;&quot;&gt;models (&lt;b&gt;&lt;i&gt;Weight&lt;/i&gt;&lt;/b&gt;&lt;/span&gt;&lt;b style=&quot;background-color: initial;&quot;&gt;&lt;i&gt;&lt;span style=&quot;background-color: initial;&quot; class=&quot;hljs-operator&quot;&gt;/&amp;nbsp;&lt;/span&gt;&lt;span style=&quot;background-color: initial;&quot;&gt;Durability&lt;/span&gt;&lt;span style=&quot;background-color: initial;&quot; class=&quot;hljs-operator&quot;&gt;/&amp;nbsp;&lt;/span&gt;&lt;/i&gt;&lt;/b&gt;&lt;span style=&quot;background-color: initial;&quot;&gt;&lt;b&gt;&lt;i&gt;Cost&lt;/i&gt;&lt;/b&gt;)&lt;/span&gt;&lt;/div&gt;" style="rounded=1;whiteSpace=wrap;html=1;align=left;fillColor=#e1d5e7;strokeColor=#9673a6;" vertex="1" parent="1">
          <mxGeometry x="35" y="-1640" width="210" height="50" as="geometry" />
        </mxCell>
        <mxCell id="xoTzIHeCAV2_g0zYCG---166" value="" style="edgeStyle=orthogonalEdgeStyle;rounded=0;orthogonalLoop=1;jettySize=auto;html=1;" edge="1" parent="1" source="xoTzIHeCAV2_g0zYCG---161" target="xoTzIHeCAV2_g0zYCG---157">
          <mxGeometry relative="1" as="geometry" />
        </mxCell>
        <mxCell id="xoTzIHeCAV2_g0zYCG---161" value="&amp;nbsp; &amp;nbsp;&lt;b&gt;Processes:&lt;/b&gt;&lt;div style=&quot;&quot;&gt;&lt;span style=&quot;background-color: initial;&quot;&gt;&amp;nbsp; &amp;nbsp;- Train &lt;/span&gt;&lt;strong style=&quot;background-color: initial;&quot;&gt;Random Forest Regressor&lt;/strong&gt;&lt;span style=&quot;background-color: initial;&quot;&gt; models for each objective:&lt;/span&gt;&lt;/div&gt;&lt;blockquote style=&quot;margin: 0 0 0 40px; border: none; padding: 0px;&quot;&gt;&lt;div style=&quot;&quot;&gt;&lt;strong style=&quot;background-color: initial;&quot;&gt;Weight Model&lt;/strong&gt;&lt;span style=&quot;background-color: initial;&quot;&gt;: Predicts Weight.&lt;/span&gt;&lt;/div&gt;&lt;div style=&quot;&quot;&gt;&lt;strong style=&quot;background-color: initial;&quot;&gt;Durability Model&lt;/strong&gt;&lt;span style=&quot;background-color: initial;&quot;&gt;: Predicts Durability.&lt;/span&gt;&lt;/div&gt;&lt;div style=&quot;&quot;&gt;&lt;strong style=&quot;background-color: initial;&quot;&gt;Cost Model&lt;/strong&gt;&lt;span style=&quot;background-color: initial;&quot;&gt;: Predicts Cost.&lt;/span&gt;&lt;/div&gt;&lt;/blockquote&gt;&lt;div style=&quot;&quot;&gt;&lt;span style=&quot;background-color: initial;&quot;&gt;&amp;nbsp; &amp;nbsp;- Evaluate models using metrics:&lt;/span&gt;&lt;/div&gt;&lt;blockquote style=&quot;margin: 0 0 0 40px; border: none; padding: 0px;&quot;&gt;&lt;div style=&quot;&quot;&gt;&lt;strong style=&quot;background-color: initial;&quot;&gt;R² score&lt;/strong&gt;&lt;span style=&quot;background-color: initial;&quot;&gt;&lt;b&gt;, RMSE, MAE.&lt;/b&gt;&lt;/span&gt;&lt;/div&gt;&lt;/blockquote&gt;" style="rounded=1;whiteSpace=wrap;html=1;align=left;fillColor=#ffe6cc;strokeColor=#d79b00;" vertex="1" parent="1">
          <mxGeometry x="-10" y="-1800" width="300" height="130" as="geometry" />
        </mxCell>
        <mxCell id="xoTzIHeCAV2_g0zYCG---162" value="&lt;strong&gt;Objective&lt;/strong&gt;: Build ML models to approximate the objectives (Weight, Cost, Durability) based on input features." style="rounded=1;whiteSpace=wrap;html=1;fillColor=#d5e8d4;strokeColor=#82b366;align=center;" vertex="1" parent="1">
          <mxGeometry x="-17.5" y="-1920" width="315" height="40" as="geometry" />
        </mxCell>
        <mxCell id="xoTzIHeCAV2_g0zYCG---165" style="edgeStyle=orthogonalEdgeStyle;rounded=0;orthogonalLoop=1;jettySize=auto;html=1;exitX=0.5;exitY=1;exitDx=0;exitDy=0;entryX=1;entryY=0.5;entryDx=0;entryDy=0;" edge="1" parent="1" source="xoTzIHeCAV2_g0zYCG---142" target="xoTzIHeCAV2_g0zYCG---156">
          <mxGeometry relative="1" as="geometry">
            <mxPoint x="180" y="-1850" as="targetPoint" />
            <Array as="points">
              <mxPoint x="430" y="-1590" />
              <mxPoint x="330" y="-1590" />
              <mxPoint x="330" y="-1850" />
            </Array>
          </mxGeometry>
        </mxCell>
        <mxCell id="xoTzIHeCAV2_g0zYCG---173" value="&lt;b&gt;Genetic Algorithm Dataset Preparation M&lt;font&gt;&lt;span style=&quot;&quot; class=&quot;hljs-keyword&quot;&gt;odule&lt;/span&gt;&lt;/font&gt;&lt;/b&gt;&lt;br&gt;&lt;div&gt;&lt;b&gt;&lt;br&gt;&lt;/b&gt;&lt;/div&gt;&lt;div&gt;&lt;b&gt;&lt;br&gt;&lt;/b&gt;&lt;/div&gt;&lt;div&gt;&lt;b&gt;&lt;br&gt;&lt;/b&gt;&lt;div&gt;&lt;span class=&quot;hljs-keyword&quot;&gt;&lt;br&gt;&lt;/span&gt;&lt;/div&gt;&lt;div&gt;&lt;span class=&quot;hljs-keyword&quot;&gt;&lt;br&gt;&lt;/span&gt;&lt;/div&gt;&lt;div&gt;&lt;br&gt;&lt;/div&gt;&lt;div&gt;&lt;span class=&quot;hljs-keyword&quot;&gt;&lt;br&gt;&lt;/span&gt;&lt;/div&gt;&lt;div&gt;&lt;br&gt;&lt;/div&gt;&lt;div&gt;&lt;span class=&quot;hljs-keyword&quot;&gt;&lt;br&gt;&lt;/span&gt;&lt;/div&gt;&lt;div&gt;&lt;span class=&quot;hljs-keyword&quot;&gt;&lt;br&gt;&lt;/span&gt;&lt;/div&gt;&lt;div&gt;&lt;span class=&quot;hljs-keyword&quot;&gt;&lt;br&gt;&lt;/span&gt;&lt;/div&gt;&lt;div&gt;&lt;span class=&quot;hljs-keyword&quot;&gt;&lt;br&gt;&lt;/span&gt;&lt;/div&gt;&lt;div&gt;&lt;span class=&quot;hljs-keyword&quot;&gt;&lt;br&gt;&lt;/span&gt;&lt;/div&gt;&lt;div&gt;&lt;span class=&quot;hljs-keyword&quot;&gt;&lt;br&gt;&lt;/span&gt;&lt;/div&gt;&lt;div&gt;&lt;span class=&quot;hljs-keyword&quot;&gt;&lt;br&gt;&lt;/span&gt;&lt;/div&gt;&lt;div&gt;&lt;span class=&quot;hljs-keyword&quot;&gt;&lt;br&gt;&lt;/span&gt;&lt;/div&gt;&lt;div&gt;&lt;span class=&quot;hljs-keyword&quot;&gt;&lt;br&gt;&lt;/span&gt;&lt;/div&gt;&lt;div&gt;&lt;span class=&quot;hljs-keyword&quot;&gt;&lt;br&gt;&lt;/span&gt;&lt;/div&gt;&lt;div&gt;&lt;span class=&quot;hljs-keyword&quot;&gt;&lt;br&gt;&lt;/span&gt;&lt;/div&gt;&lt;div&gt;&lt;span class=&quot;hljs-keyword&quot;&gt;&lt;br&gt;&lt;/span&gt;&lt;/div&gt;&lt;/div&gt;" style="rounded=0;whiteSpace=wrap;html=1;" vertex="1" parent="1">
          <mxGeometry x="370" y="-1515" width="315" height="330" as="geometry" />
        </mxCell>
        <mxCell id="xoTzIHeCAV2_g0zYCG---176" value="&lt;span style=&quot;&quot;&gt;&lt;b&gt;&amp;nbsp; Output:&lt;/b&gt;&lt;/span&gt;&lt;div style=&quot;text-align: center;&quot;&gt;&lt;span style=&quot;background-color: initial;&quot;&gt;&lt;b&gt;&amp;nbsp;&amp;nbsp;&lt;/b&gt;&lt;/span&gt;&lt;span style=&quot;background-color: initial; text-align: left;&quot;&gt;GA&lt;/span&gt;&lt;span style=&quot;background-color: initial; text-align: left;&quot; class=&quot;hljs-operator&quot;&gt;-&lt;/span&gt;&lt;span style=&quot;background-color: initial; text-align: left;&quot;&gt;ready material dataset&lt;/span&gt;&lt;/div&gt;" style="rounded=1;whiteSpace=wrap;html=1;align=left;fillColor=#e1d5e7;strokeColor=#9673a6;" vertex="1" parent="1">
          <mxGeometry x="450" y="-1235" width="155" height="35" as="geometry" />
        </mxCell>
        <mxCell id="xoTzIHeCAV2_g0zYCG---177" value="" style="edgeStyle=orthogonalEdgeStyle;rounded=0;orthogonalLoop=1;jettySize=auto;html=1;" edge="1" parent="1" source="xoTzIHeCAV2_g0zYCG---178" target="xoTzIHeCAV2_g0zYCG---176">
          <mxGeometry relative="1" as="geometry" />
        </mxCell>
        <mxCell id="xoTzIHeCAV2_g0zYCG---178" value="&amp;nbsp; &amp;nbsp;&lt;b&gt;Processes:&lt;/b&gt;&lt;div style=&quot;&quot;&gt;&lt;span style=&quot;background-color: initial;&quot;&gt;&amp;nbsp; &amp;nbsp;-&amp;nbsp;&lt;/span&gt;&lt;span style=&quot;background-color: initial;&quot;&gt;Extract&amp;nbsp;&lt;/span&gt;&lt;span style=&quot;background-color: initial;&quot;&gt;Features&lt;/span&gt;&lt;/div&gt;&lt;div style=&quot;&quot;&gt;&lt;span style=&quot;background-color: initial;&quot;&gt;&amp;nbsp; &amp;nbsp;- Normalize Data&lt;/span&gt;&lt;/div&gt;&lt;div style=&quot;&quot;&gt;&lt;span style=&quot;background-color: initial;&quot;&gt;&amp;nbsp; &amp;nbsp;-&amp;nbsp;&lt;/span&gt;&lt;span style=&quot;background-color: initial;&quot;&gt;Define Bounds&lt;/span&gt;&lt;/div&gt;" style="rounded=1;whiteSpace=wrap;html=1;align=left;fillColor=#ffe6cc;strokeColor=#d79b00;" vertex="1" parent="1">
          <mxGeometry x="467.5" y="-1335" width="120" height="70" as="geometry" />
        </mxCell>
        <mxCell id="xoTzIHeCAV2_g0zYCG---179" value="&lt;strong&gt;Objective&lt;/strong&gt;: Prepare a clean, scaled, and feature-ready dataset for Genetic Algorithm execution." style="rounded=1;whiteSpace=wrap;html=1;fillColor=#d5e8d4;strokeColor=#82b366;align=center;" vertex="1" parent="1">
          <mxGeometry x="386.25" y="-1475" width="282.5" height="40" as="geometry" />
        </mxCell>
        <mxCell id="xoTzIHeCAV2_g0zYCG---185" style="edgeStyle=orthogonalEdgeStyle;rounded=0;orthogonalLoop=1;jettySize=auto;html=1;" edge="1" parent="1" source="xoTzIHeCAV2_g0zYCG---180">
          <mxGeometry relative="1" as="geometry">
            <mxPoint x="527.5000000000002" y="-1335" as="targetPoint" />
            <Array as="points">
              <mxPoint x="596.5" y="-1355" />
              <mxPoint x="528.5" y="-1355" />
              <mxPoint x="528.5" y="-1335" />
            </Array>
          </mxGeometry>
        </mxCell>
        <mxCell id="xoTzIHeCAV2_g0zYCG---180" value="&lt;div style=&quot;text-align: left;&quot;&gt;&lt;b style=&quot;background-color: initial;&quot;&gt;Input:&lt;/b&gt;&lt;/div&gt;&lt;div style=&quot;text-align: left;&quot;&gt;Dataset&lt;/div&gt;" style="rounded=1;whiteSpace=wrap;html=1;align=center;fillColor=#dae8fc;strokeColor=#6c8ebf;" vertex="1" parent="1">
          <mxGeometry x="560" y="-1420" width="72.5" height="40" as="geometry" />
        </mxCell>
        <mxCell id="xoTzIHeCAV2_g0zYCG---184" style="edgeStyle=orthogonalEdgeStyle;rounded=0;orthogonalLoop=1;jettySize=auto;html=1;entryX=0.5;entryY=0;entryDx=0;entryDy=0;" edge="1" parent="1" source="xoTzIHeCAV2_g0zYCG---181" target="xoTzIHeCAV2_g0zYCG---178">
          <mxGeometry relative="1" as="geometry" />
        </mxCell>
        <mxCell id="xoTzIHeCAV2_g0zYCG---181" value="&lt;div style=&quot;text-align: left;&quot;&gt;&lt;b style=&quot;background-color: initial;&quot;&gt;&amp;nbsp; &amp;nbsp;Input:&lt;/b&gt;&lt;/div&gt;&lt;div style=&quot;&quot;&gt;Thickness bounds: &lt;span class=&quot;katex&quot;&gt;&lt;span class=&quot;katex-mathml&quot;&gt;&lt;math xmlns=&quot;http://www.w3.org/1998/Math/MathML&quot;&gt;&lt;mrow&gt;&lt;mi&gt;t&lt;/mi&gt;&lt;mo&gt;∈&lt;/mo&gt;&lt;mo stretchy=&quot;false&quot;&gt;[&lt;/mo&gt;&lt;mn&gt;0.01&lt;/mn&gt;&lt;mo separator=&quot;true&quot;&gt;,&lt;/mo&gt;&lt;mn&gt;0.1&lt;/mn&gt;&lt;mo stretchy=&quot;false&quot;&gt;]&lt;/mo&gt;&lt;/mrow&gt;t \in [0.01, 0.1]&lt;/math&gt;&lt;/span&gt;&lt;br&gt;&lt;/span&gt;&lt;/div&gt;" style="rounded=1;whiteSpace=wrap;html=1;align=center;fillColor=#dae8fc;strokeColor=#6c8ebf;" vertex="1" parent="1">
          <mxGeometry x="407.5" y="-1425" width="120" height="50" as="geometry" />
        </mxCell>
        <mxCell id="xoTzIHeCAV2_g0zYCG---182" style="edgeStyle=orthogonalEdgeStyle;rounded=0;orthogonalLoop=1;jettySize=auto;html=1;entryX=1;entryY=0.5;entryDx=0;entryDy=0;exitX=0.5;exitY=1;exitDx=0;exitDy=0;" edge="1" parent="1" source="xoTzIHeCAV2_g0zYCG---149" target="xoTzIHeCAV2_g0zYCG---180">
          <mxGeometry relative="1" as="geometry">
            <mxPoint x="550" y="-1370" as="targetPoint" />
            <Array as="points">
              <mxPoint x="635" y="-1540" />
              <mxPoint x="710" y="-1540" />
              <mxPoint x="710" y="-1400" />
            </Array>
          </mxGeometry>
        </mxCell>
        <mxCell id="xoTzIHeCAV2_g0zYCG---192" value="&lt;b&gt;Optimization Problem Definition&amp;nbsp;M&lt;font&gt;&lt;span style=&quot;&quot; class=&quot;hljs-keyword&quot;&gt;odule&lt;/span&gt;&lt;/font&gt;&lt;/b&gt;&lt;div&gt;&lt;div&gt;&lt;span class=&quot;hljs-keyword&quot;&gt;&lt;br&gt;&lt;/span&gt;&lt;/div&gt;&lt;div&gt;&lt;span class=&quot;hljs-keyword&quot;&gt;&lt;br&gt;&lt;/span&gt;&lt;/div&gt;&lt;div&gt;&lt;span class=&quot;hljs-keyword&quot;&gt;&lt;br&gt;&lt;/span&gt;&lt;/div&gt;&lt;div&gt;&lt;span class=&quot;hljs-keyword&quot;&gt;&lt;br&gt;&lt;/span&gt;&lt;/div&gt;&lt;div&gt;&lt;br&gt;&lt;/div&gt;&lt;div&gt;&lt;span class=&quot;hljs-keyword&quot;&gt;&lt;br&gt;&lt;/span&gt;&lt;/div&gt;&lt;div&gt;&lt;span class=&quot;hljs-keyword&quot;&gt;&lt;br&gt;&lt;/span&gt;&lt;/div&gt;&lt;div&gt;&lt;span class=&quot;hljs-keyword&quot;&gt;&lt;br&gt;&lt;/span&gt;&lt;/div&gt;&lt;div&gt;&lt;span class=&quot;hljs-keyword&quot;&gt;&lt;br&gt;&lt;/span&gt;&lt;/div&gt;&lt;div&gt;&lt;span class=&quot;hljs-keyword&quot;&gt;&lt;br&gt;&lt;/span&gt;&lt;/div&gt;&lt;div&gt;&lt;span class=&quot;hljs-keyword&quot;&gt;&lt;br&gt;&lt;/span&gt;&lt;/div&gt;&lt;div&gt;&lt;span class=&quot;hljs-keyword&quot;&gt;&lt;br&gt;&lt;/span&gt;&lt;/div&gt;&lt;div&gt;&lt;span class=&quot;hljs-keyword&quot;&gt;&lt;br&gt;&lt;/span&gt;&lt;/div&gt;&lt;div&gt;&lt;span class=&quot;hljs-keyword&quot;&gt;&lt;br&gt;&lt;/span&gt;&lt;/div&gt;&lt;div&gt;&lt;span class=&quot;hljs-keyword&quot;&gt;&lt;br&gt;&lt;/span&gt;&lt;/div&gt;&lt;div&gt;&lt;span class=&quot;hljs-keyword&quot;&gt;&lt;br&gt;&lt;/span&gt;&lt;/div&gt;&lt;div&gt;&lt;span class=&quot;hljs-keyword&quot;&gt;&lt;br&gt;&lt;/span&gt;&lt;/div&gt;&lt;div&gt;&lt;span class=&quot;hljs-keyword&quot;&gt;&lt;br&gt;&lt;/span&gt;&lt;/div&gt;&lt;div&gt;&lt;span class=&quot;hljs-keyword&quot;&gt;&lt;br&gt;&lt;/span&gt;&lt;/div&gt;&lt;div&gt;&lt;span class=&quot;hljs-keyword&quot;&gt;&lt;br&gt;&lt;/span&gt;&lt;/div&gt;&lt;div&gt;&lt;span class=&quot;hljs-keyword&quot;&gt;&lt;br&gt;&lt;/span&gt;&lt;/div&gt;&lt;div&gt;&lt;span class=&quot;hljs-keyword&quot;&gt;&lt;br&gt;&lt;/span&gt;&lt;/div&gt;&lt;div&gt;&lt;span class=&quot;hljs-keyword&quot;&gt;&lt;br&gt;&lt;/span&gt;&lt;/div&gt;&lt;div&gt;&lt;span class=&quot;hljs-keyword&quot;&gt;&lt;br&gt;&lt;/span&gt;&lt;/div&gt;&lt;div&gt;&lt;span class=&quot;hljs-keyword&quot;&gt;&lt;br&gt;&lt;/span&gt;&lt;/div&gt;&lt;div&gt;&lt;span class=&quot;hljs-keyword&quot;&gt;&lt;br&gt;&lt;/span&gt;&lt;/div&gt;&lt;div&gt;&lt;span class=&quot;hljs-keyword&quot;&gt;&lt;br&gt;&lt;/span&gt;&lt;/div&gt;&lt;div&gt;&lt;span class=&quot;hljs-keyword&quot;&gt;&lt;br&gt;&lt;/span&gt;&lt;/div&gt;&lt;div&gt;&lt;span class=&quot;hljs-keyword&quot;&gt;&lt;br&gt;&lt;/span&gt;&lt;/div&gt;&lt;div&gt;&lt;span class=&quot;hljs-keyword&quot;&gt;&lt;br&gt;&lt;/span&gt;&lt;/div&gt;&lt;div&gt;&lt;span class=&quot;hljs-keyword&quot;&gt;&lt;br&gt;&lt;/span&gt;&lt;/div&gt;&lt;div&gt;&lt;span class=&quot;hljs-keyword&quot;&gt;&lt;br&gt;&lt;/span&gt;&lt;/div&gt;&lt;div&gt;&lt;span class=&quot;hljs-keyword&quot;&gt;&lt;br&gt;&lt;/span&gt;&lt;/div&gt;&lt;div&gt;&lt;span class=&quot;hljs-keyword&quot;&gt;&lt;br&gt;&lt;/span&gt;&lt;/div&gt;&lt;div&gt;&lt;span class=&quot;hljs-keyword&quot;&gt;&lt;br&gt;&lt;/span&gt;&lt;/div&gt;&lt;div&gt;&lt;span class=&quot;hljs-keyword&quot;&gt;&lt;br&gt;&lt;/span&gt;&lt;/div&gt;&lt;/div&gt;" style="rounded=0;whiteSpace=wrap;html=1;" vertex="1" parent="1">
          <mxGeometry x="-133.75" y="-1515" width="423.75" height="560" as="geometry" />
        </mxCell>
        <mxCell id="xoTzIHeCAV2_g0zYCG---193" value="&lt;span style=&quot;&quot;&gt;&lt;b&gt;&amp;nbsp; Output:&lt;/b&gt;&lt;/span&gt;&lt;div style=&quot;text-align: center;&quot;&gt;&lt;span style=&quot;background-color: initial;&quot;&gt;&lt;b&gt;&amp;nbsp;&amp;nbsp;&lt;/b&gt;&lt;/span&gt;&lt;span style=&quot;background-color: initial; text-align: left;&quot;&gt;Optimization problem instance ready for Genetic Algorithm execution.&lt;/span&gt;&lt;/div&gt;" style="rounded=1;whiteSpace=wrap;html=1;align=left;fillColor=#e1d5e7;strokeColor=#9673a6;" vertex="1" parent="1">
          <mxGeometry x="-110.62" y="-1015" width="378.12" height="40" as="geometry" />
        </mxCell>
        <mxCell id="xoTzIHeCAV2_g0zYCG---194" value="" style="edgeStyle=orthogonalEdgeStyle;rounded=0;orthogonalLoop=1;jettySize=auto;html=1;" edge="1" parent="1" source="xoTzIHeCAV2_g0zYCG---195" target="xoTzIHeCAV2_g0zYCG---193">
          <mxGeometry relative="1" as="geometry" />
        </mxCell>
        <mxCell id="xoTzIHeCAV2_g0zYCG---195" value="&amp;nbsp; &amp;nbsp;&lt;b&gt;Processes:&lt;/b&gt;&lt;div style=&quot;&quot;&gt;&lt;span style=&quot;background-color: initial;&quot;&gt;&amp;nbsp; &amp;nbsp;-&amp;nbsp;&lt;/span&gt;&lt;span style=&quot;background-color: initial;&quot;&gt;&lt;b&gt;Define Multi-Objective Optimization:&lt;/b&gt;&lt;/span&gt;&lt;/div&gt;&lt;div style=&quot;&quot;&gt;&lt;span style=&quot;background-color: initial;&quot;&gt;&amp;nbsp; &amp;nbsp; &amp;nbsp; &amp;nbsp;Objectives:&lt;/span&gt;&lt;/div&gt;&lt;blockquote style=&quot;margin: 0 0 0 40px; border: none; padding: 0px;&quot;&gt;&lt;div style=&quot;&quot;&gt;&lt;span style=&quot;background-color: initial;&quot;&gt;&lt;b&gt;Minimize Weight&lt;/b&gt; (using &lt;/span&gt;&lt;code style=&quot;background-color: initial;&quot;&gt;weight_model&lt;/code&gt;&lt;span style=&quot;background-color: initial;&quot;&gt;).&lt;/span&gt;&lt;/div&gt;&lt;div style=&quot;&quot;&gt;&lt;span style=&quot;background-color: initial;&quot;&gt;&lt;b&gt;Minimize Cost&lt;/b&gt; (using &lt;/span&gt;&lt;code style=&quot;background-color: initial;&quot;&gt;cost_model&lt;/code&gt;&lt;span style=&quot;background-color: initial;&quot;&gt;).&lt;/span&gt;&lt;/div&gt;&lt;div style=&quot;&quot;&gt;&lt;span style=&quot;background-color: initial;&quot;&gt;&lt;b&gt;Maximize Durability&lt;/b&gt; (converted as&amp;nbsp;&lt;/span&gt;&lt;span style=&quot;background-color: initial;&quot;&gt;Durability&amp;nbsp;&lt;/span&gt;&lt;span style=&quot;background-color: initial;&quot;&gt;for minimization using&amp;nbsp;&lt;/span&gt;&lt;span style=&quot;background-color: initial;&quot;&gt;durability_model&lt;/span&gt;&lt;span style=&quot;background-color: initial;&quot;&gt;).&lt;/span&gt;&lt;/div&gt;&lt;/blockquote&gt;&lt;span style=&quot;background-color: initial;&quot;&gt;&amp;nbsp; -&amp;nbsp;&lt;/span&gt;&lt;strong style=&quot;background-color: initial;&quot;&gt;Add Constraints&lt;/strong&gt;&lt;span style=&quot;background-color: initial;&quot;&gt;:&lt;/span&gt;&lt;br style=&quot;background-color: initial;&quot;&gt;&lt;blockquote style=&quot;margin: 0 0 0 40px; border: none; padding: 0px;&quot;&gt;&lt;span style=&quot;background-color: initial;&quot;&gt;Enforce &lt;/span&gt;&lt;span style=&quot;background-color: initial;&quot;&gt;&lt;b&gt;Temperature Resistance: &lt;/b&gt;&lt;font face=&quot;math&quot;&gt;k.t&amp;nbsp;&lt;/font&gt;&lt;/span&gt;&lt;span style=&quot;background-color: initial;&quot;&gt;&lt;font face=&quot;math&quot;&gt;≥ T&lt;sub&gt;peak&lt;/sub&gt;&lt;/font&gt;&lt;/span&gt;&lt;/blockquote&gt;&lt;blockquote style=&quot;margin: 0 0 0 40px; border: none; padding: 0px;&quot;&gt;&lt;span style=&quot;background-color: initial;&quot;&gt;Enforce &lt;/span&gt;&lt;strong style=&quot;background-color: initial;&quot;&gt;Thickness Bounds&lt;/strong&gt;&lt;span style=&quot;background-color: initial;&quot;&gt;: Ensure decision variables&amp;nbsp;&lt;/span&gt;&lt;font style=&quot;background-color: initial;&quot; face=&quot;Helvetica&quot;&gt;respect the range&lt;/font&gt;&lt;font style=&quot;background-color: initial;&quot;&gt; &lt;font face=&quot;math&quot;&gt;[0.01, 0.1]&lt;/font&gt;&lt;/font&gt;&lt;font style=&quot;background-color: initial;&quot; face=&quot;Helvetica&quot;&gt;.&lt;/font&gt;&lt;/blockquote&gt;&lt;font style=&quot;background-color: initial;&quot; face=&quot;Helvetica&quot;&gt;&amp;nbsp; &amp;nbsp;-&amp;nbsp;&lt;/font&gt;&lt;b&gt;Fitness Evaluation&lt;/b&gt;" style="rounded=1;whiteSpace=wrap;html=1;align=left;fillColor=#ffe6cc;strokeColor=#d79b00;" vertex="1" parent="1">
          <mxGeometry x="-111.56" y="-1235" width="380" height="190" as="geometry" />
        </mxCell>
        <mxCell id="xoTzIHeCAV2_g0zYCG---196" value="&lt;strong&gt;Objective&lt;/strong&gt;: Formulate a multi-objective optimization problem with defined objectives and constraints." style="rounded=1;whiteSpace=wrap;html=1;fillColor=#d5e8d4;strokeColor=#82b366;align=center;" vertex="1" parent="1">
          <mxGeometry x="-112.19" y="-1475" width="380.63" height="40" as="geometry" />
        </mxCell>
        <mxCell id="xoTzIHeCAV2_g0zYCG---207" style="edgeStyle=orthogonalEdgeStyle;rounded=0;orthogonalLoop=1;jettySize=auto;html=1;entryX=0.5;entryY=0;entryDx=0;entryDy=0;exitX=0.5;exitY=1;exitDx=0;exitDy=0;" edge="1" parent="1" source="xoTzIHeCAV2_g0zYCG---226" target="xoTzIHeCAV2_g0zYCG---195">
          <mxGeometry relative="1" as="geometry">
            <mxPoint x="233.0999999999999" y="-1345" as="sourcePoint" />
            <Array as="points">
              <mxPoint x="233" y="-1265" />
              <mxPoint x="78" y="-1265" />
            </Array>
          </mxGeometry>
        </mxCell>
        <mxCell id="xoTzIHeCAV2_g0zYCG---202" style="edgeStyle=orthogonalEdgeStyle;rounded=0;orthogonalLoop=1;jettySize=auto;html=1;entryX=0.5;entryY=0;entryDx=0;entryDy=0;exitX=0.5;exitY=1;exitDx=0;exitDy=0;" edge="1" parent="1" source="xoTzIHeCAV2_g0zYCG---200" target="xoTzIHeCAV2_g0zYCG---195">
          <mxGeometry relative="1" as="geometry">
            <Array as="points">
              <mxPoint x="77" y="-1265" />
              <mxPoint x="78" y="-1265" />
            </Array>
          </mxGeometry>
        </mxCell>
        <mxCell id="xoTzIHeCAV2_g0zYCG---200" value="&lt;div style=&quot;text-align: left;&quot;&gt;&lt;b style=&quot;background-color: initial;&quot;&gt;&amp;nbsp; &amp;nbsp;Input:&lt;/b&gt;&lt;/div&gt;&lt;div style=&quot;text-align: left;&quot;&gt;&lt;span style=&quot;background-color: initial; text-align: center;&quot;&gt;Constraints:&lt;/span&gt;&lt;/div&gt;&lt;div style=&quot;text-align: left;&quot;&gt;&lt;span style=&quot;background-color: initial; text-align: center;&quot;&gt;- Temperature resistance:&amp;nbsp;&lt;/span&gt;&lt;/div&gt;&lt;blockquote style=&quot;margin: 0 0 0 40px; border: none; padding: 0px;&quot;&gt;&lt;div style=&quot;text-align: left;&quot;&gt;&lt;font face=&quot;math&quot;&gt;&lt;span style=&quot;background-color: initial; text-align: center;&quot;&gt;k&lt;/span&gt;&lt;span style=&quot;background-color: initial; text-align: center;&quot;&gt;⋅&lt;/span&gt;&lt;span style=&quot;background-color: initial; text-align: center;&quot;&gt;t&amp;nbsp;&lt;/span&gt;&lt;span style=&quot;background-color: initial; text-align: center;&quot;&gt;≥&amp;nbsp;&lt;/span&gt;&lt;span style=&quot;background-color: initial; text-align: center;&quot;&gt;T&lt;/span&gt;&lt;sub&gt;&lt;span style=&quot;background-color: initial; text-align: center;&quot;&gt;p&lt;/span&gt;&lt;span style=&quot;background-color: initial; text-align: center;&quot;&gt;e&lt;/span&gt;&lt;span style=&quot;background-color: initial; text-align: center;&quot;&gt;a&lt;/span&gt;&lt;span style=&quot;background-color: initial; text-align: center;&quot;&gt;k&lt;/span&gt;&lt;/sub&gt;&lt;/font&gt;&lt;/div&gt;&lt;/blockquote&gt;&lt;div style=&quot;text-align: left;&quot;&gt;&lt;span class=&quot;katex&quot;&gt;-&amp;nbsp;&lt;/span&gt;&lt;span style=&quot;background-color: initial; text-align: center;&quot;&gt;Thickness bounds:&lt;/span&gt;&lt;/div&gt;&lt;blockquote style=&quot;margin: 0 0 0 40px; border: none; padding: 0px;&quot;&gt;&lt;div style=&quot;text-align: left;&quot;&gt;&lt;font face=&quot;math&quot;&gt;&lt;span style=&quot;background-color: initial; text-align: center;&quot;&gt;t&amp;nbsp;&lt;/span&gt;&lt;span style=&quot;background-color: initial; text-align: center;&quot;&gt;∈ [0.01, 0.1]&lt;/span&gt;&lt;/font&gt;&lt;/div&gt;&lt;/blockquote&gt;&lt;blockquote style=&quot;margin: 0 0 0 40px; border: none; padding: 0px;&quot;&gt;&lt;div style=&quot;text-align: left;&quot;&gt;&lt;font face=&quot;math&quot;&gt;&lt;/font&gt;&lt;/div&gt;&lt;/blockquote&gt;&lt;span style=&quot;background-color: initial; text-align: left;&quot;&gt;- Safety margin: Adjusted thickness&lt;/span&gt;&lt;blockquote style=&quot;margin: 0 0 0 40px; border: none; padding: 0px;&quot;&gt;&lt;div style=&quot;text-align: left;&quot;&gt;&lt;font face=&quot;math&quot;&gt;&lt;span style=&quot;background-color: initial;&quot;&gt;t&lt;sub&gt;safe&lt;/sub&gt; = t&amp;nbsp;&amp;nbsp;&lt;/span&gt;&lt;span style=&quot;background-color: initial; text-align: center;&quot; class=&quot;base&quot;&gt;&lt;span class=&quot;mbin&quot;&gt;×&lt;/span&gt;&lt;span class=&quot;mspace&quot;&gt;&lt;/span&gt;&lt;/span&gt;&lt;span style=&quot;background-color: initial; text-align: center;&quot; class=&quot;base&quot;&gt;&lt;span class=&quot;strut&quot;&gt;&lt;/span&gt;&lt;span class=&quot;mopen&quot;&gt;(&lt;/span&gt;&lt;span class=&quot;mord&quot;&gt;1&lt;/span&gt;&lt;span class=&quot;mspace&quot;&gt;&lt;/span&gt;&lt;span class=&quot;mbin&quot;&gt;+&lt;/span&gt;&lt;span class=&quot;mspace&quot;&gt;&lt;/span&gt;&lt;/span&gt;&lt;span style=&quot;background-color: initial; text-align: center;&quot; class=&quot;base&quot;&gt;&lt;span class=&quot;strut&quot;&gt;&lt;/span&gt;&lt;span class=&quot;mord text&quot;&gt;&lt;span class=&quot;mord&quot;&gt;Safety&amp;nbsp;Factor&lt;/span&gt;&lt;/span&gt;&lt;span class=&quot;mclose&quot;&gt;)&lt;/span&gt;&lt;/span&gt;&lt;/font&gt;&lt;/div&gt;&lt;/blockquote&gt;&lt;div style=&quot;text-align: left;&quot;&gt;&lt;div&gt;&lt;/div&gt;&lt;/div&gt;" style="rounded=1;whiteSpace=wrap;html=1;align=center;fillColor=#dae8fc;strokeColor=#6c8ebf;" vertex="1" parent="1">
          <mxGeometry x="-21.87" y="-1410" width="198.12" height="125" as="geometry" />
        </mxCell>
        <mxCell id="xoTzIHeCAV2_g0zYCG---206" style="edgeStyle=orthogonalEdgeStyle;rounded=0;orthogonalLoop=1;jettySize=auto;html=1;entryX=0.5;entryY=0;entryDx=0;entryDy=0;exitX=0.5;exitY=1;exitDx=0;exitDy=0;" edge="1" parent="1" source="xoTzIHeCAV2_g0zYCG---225" target="xoTzIHeCAV2_g0zYCG---195">
          <mxGeometry relative="1" as="geometry">
            <mxPoint x="-70" y="-1335" as="sourcePoint" />
            <Array as="points">
              <mxPoint x="-75" y="-1265" />
              <mxPoint x="78" y="-1265" />
            </Array>
          </mxGeometry>
        </mxCell>
        <mxCell id="xoTzIHeCAV2_g0zYCG---210" value="&lt;b&gt;Genetic Algorithm Optimization&amp;nbsp;M&lt;font&gt;&lt;span style=&quot;&quot; class=&quot;hljs-keyword&quot;&gt;odule&lt;/span&gt;&lt;/font&gt;&lt;/b&gt;&lt;div&gt;&lt;div&gt;&lt;span class=&quot;hljs-keyword&quot;&gt;&lt;br&gt;&lt;/span&gt;&lt;/div&gt;&lt;div&gt;&lt;span class=&quot;hljs-keyword&quot;&gt;&lt;br&gt;&lt;/span&gt;&lt;/div&gt;&lt;div&gt;&lt;span class=&quot;hljs-keyword&quot;&gt;&lt;br&gt;&lt;/span&gt;&lt;/div&gt;&lt;div&gt;&lt;br&gt;&lt;/div&gt;&lt;div&gt;&lt;span class=&quot;hljs-keyword&quot;&gt;&lt;br&gt;&lt;/span&gt;&lt;/div&gt;&lt;div&gt;&lt;span class=&quot;hljs-keyword&quot;&gt;&lt;br&gt;&lt;/span&gt;&lt;/div&gt;&lt;div&gt;&lt;span class=&quot;hljs-keyword&quot;&gt;&lt;br&gt;&lt;/span&gt;&lt;/div&gt;&lt;div&gt;&lt;span class=&quot;hljs-keyword&quot;&gt;&lt;br&gt;&lt;/span&gt;&lt;/div&gt;&lt;div&gt;&lt;span class=&quot;hljs-keyword&quot;&gt;&lt;br&gt;&lt;/span&gt;&lt;/div&gt;&lt;div&gt;&lt;span class=&quot;hljs-keyword&quot;&gt;&lt;br&gt;&lt;/span&gt;&lt;/div&gt;&lt;div&gt;&lt;span class=&quot;hljs-keyword&quot;&gt;&lt;br&gt;&lt;/span&gt;&lt;/div&gt;&lt;div&gt;&lt;span class=&quot;hljs-keyword&quot;&gt;&lt;br&gt;&lt;/span&gt;&lt;/div&gt;&lt;div&gt;&lt;span class=&quot;hljs-keyword&quot;&gt;&lt;br&gt;&lt;/span&gt;&lt;/div&gt;&lt;div&gt;&lt;span class=&quot;hljs-keyword&quot;&gt;&lt;br&gt;&lt;/span&gt;&lt;/div&gt;&lt;div&gt;&lt;span class=&quot;hljs-keyword&quot;&gt;&lt;br&gt;&lt;/span&gt;&lt;/div&gt;&lt;div&gt;&lt;span class=&quot;hljs-keyword&quot;&gt;&lt;br&gt;&lt;/span&gt;&lt;/div&gt;&lt;div&gt;&lt;span class=&quot;hljs-keyword&quot;&gt;&lt;br&gt;&lt;/span&gt;&lt;/div&gt;&lt;div&gt;&lt;span class=&quot;hljs-keyword&quot;&gt;&lt;br&gt;&lt;/span&gt;&lt;/div&gt;&lt;div&gt;&lt;span class=&quot;hljs-keyword&quot;&gt;&lt;br&gt;&lt;/span&gt;&lt;/div&gt;&lt;div&gt;&lt;span class=&quot;hljs-keyword&quot;&gt;&lt;br&gt;&lt;/span&gt;&lt;/div&gt;&lt;div&gt;&lt;span class=&quot;hljs-keyword&quot;&gt;&lt;br&gt;&lt;/span&gt;&lt;/div&gt;&lt;div&gt;&lt;span class=&quot;hljs-keyword&quot;&gt;&lt;br&gt;&lt;/span&gt;&lt;/div&gt;&lt;div&gt;&lt;span class=&quot;hljs-keyword&quot;&gt;&lt;br&gt;&lt;/span&gt;&lt;/div&gt;&lt;div&gt;&lt;span class=&quot;hljs-keyword&quot;&gt;&lt;br&gt;&lt;/span&gt;&lt;/div&gt;&lt;div&gt;&lt;span class=&quot;hljs-keyword&quot;&gt;&lt;br&gt;&lt;/span&gt;&lt;/div&gt;&lt;div&gt;&lt;span class=&quot;hljs-keyword&quot;&gt;&lt;br&gt;&lt;/span&gt;&lt;/div&gt;&lt;div&gt;&lt;span class=&quot;hljs-keyword&quot;&gt;&lt;br&gt;&lt;/span&gt;&lt;/div&gt;&lt;div&gt;&lt;span class=&quot;hljs-keyword&quot;&gt;&lt;br&gt;&lt;/span&gt;&lt;/div&gt;&lt;div&gt;&lt;span class=&quot;hljs-keyword&quot;&gt;&lt;br&gt;&lt;/span&gt;&lt;/div&gt;&lt;div&gt;&lt;span class=&quot;hljs-keyword&quot;&gt;&lt;br&gt;&lt;/span&gt;&lt;/div&gt;&lt;div&gt;&lt;span class=&quot;hljs-keyword&quot;&gt;&lt;br&gt;&lt;/span&gt;&lt;/div&gt;&lt;div&gt;&lt;span class=&quot;hljs-keyword&quot;&gt;&lt;br&gt;&lt;/span&gt;&lt;/div&gt;&lt;div&gt;&lt;span class=&quot;hljs-keyword&quot;&gt;&lt;br&gt;&lt;/span&gt;&lt;/div&gt;&lt;div&gt;&lt;span class=&quot;hljs-keyword&quot;&gt;&lt;br&gt;&lt;/span&gt;&lt;/div&gt;&lt;div&gt;&lt;span class=&quot;hljs-keyword&quot;&gt;&lt;br&gt;&lt;/span&gt;&lt;/div&gt;&lt;/div&gt;" style="rounded=0;whiteSpace=wrap;html=1;" vertex="1" parent="1">
          <mxGeometry x="346.25" y="-1140" width="423.75" height="540" as="geometry" />
        </mxCell>
        <mxCell id="xoTzIHeCAV2_g0zYCG---211" value="&lt;span style=&quot;&quot;&gt;&lt;b&gt;&amp;nbsp; Output:&lt;/b&gt;&lt;/span&gt;&lt;div style=&quot;&quot;&gt;&lt;span style=&quot;background-color: initial;&quot;&gt;&lt;b&gt;&amp;nbsp;&amp;nbsp;&lt;/b&gt;&lt;/span&gt;Pareto-optimal solutions with the following values:&lt;/div&gt;&lt;div style=&quot;text-align: center;&quot;&gt;&lt;strong style=&quot;background-color: initial;&quot;&gt;Material,&amp;nbsp;&lt;/strong&gt;&lt;strong style=&quot;background-color: initial;&quot;&gt;Thickness,&amp;nbsp;&lt;/strong&gt;&lt;/div&gt;&lt;div style=&quot;text-align: center;&quot;&gt;&lt;strong style=&quot;background-color: initial;&quot;&gt;Weight,&amp;nbsp;&lt;/strong&gt;&lt;strong style=&quot;background-color: initial;&quot;&gt;Cost,&amp;nbsp;&lt;/strong&gt;&lt;strong style=&quot;background-color: initial;&quot;&gt;Durability&lt;/strong&gt;&lt;/div&gt;" style="rounded=1;whiteSpace=wrap;html=1;align=left;fillColor=#e1d5e7;strokeColor=#9673a6;" vertex="1" parent="1">
          <mxGeometry x="383.12" y="-705" width="165.61" height="90" as="geometry" />
        </mxCell>
        <mxCell id="xoTzIHeCAV2_g0zYCG---212" value="" style="edgeStyle=orthogonalEdgeStyle;rounded=0;orthogonalLoop=1;jettySize=auto;html=1;" edge="1" parent="1" source="xoTzIHeCAV2_g0zYCG---213" target="xoTzIHeCAV2_g0zYCG---211">
          <mxGeometry relative="1" as="geometry">
            <Array as="points">
              <mxPoint x="558.12" y="-730" />
              <mxPoint x="466.12" y="-730" />
            </Array>
          </mxGeometry>
        </mxCell>
        <mxCell id="xoTzIHeCAV2_g0zYCG---240" style="edgeStyle=orthogonalEdgeStyle;rounded=0;orthogonalLoop=1;jettySize=auto;html=1;entryX=0.5;entryY=0;entryDx=0;entryDy=0;" edge="1" parent="1" source="xoTzIHeCAV2_g0zYCG---213" target="xoTzIHeCAV2_g0zYCG---239">
          <mxGeometry relative="1" as="geometry">
            <Array as="points">
              <mxPoint x="558.12" y="-730" />
              <mxPoint x="663.12" y="-730" />
            </Array>
          </mxGeometry>
        </mxCell>
        <mxCell id="xoTzIHeCAV2_g0zYCG---213" value="&amp;nbsp; &amp;nbsp;&lt;b&gt;Processes:&lt;/b&gt;&lt;div style=&quot;&quot;&gt;&lt;span style=&quot;background-color: initial;&quot;&gt;&amp;nbsp; &amp;nbsp;-&amp;nbsp;&lt;/span&gt;&lt;span style=&quot;background-color: initial;&quot;&gt;Initialize Population&lt;/span&gt;&lt;/div&gt;&lt;span style=&quot;background-color: initial;&quot;&gt;&amp;nbsp; &amp;nbsp;-&amp;nbsp;&lt;/span&gt;Run NSGA-II Algorithm&lt;br&gt;&lt;font style=&quot;background-color: initial;&quot; face=&quot;Helvetica&quot;&gt;&amp;nbsp; &amp;nbsp;-&amp;nbsp;&lt;/font&gt;Track Fitness Evolution&lt;div&gt;&amp;nbsp; &amp;nbsp;-&amp;nbsp;&lt;span style=&quot;background-color: initial;&quot;&gt;Extract Pareto-Optimal Solutions&lt;/span&gt;&lt;/div&gt;" style="rounded=1;whiteSpace=wrap;html=1;align=left;fillColor=#ffe6cc;strokeColor=#d79b00;" vertex="1" parent="1">
          <mxGeometry x="459.53999999999996" y="-860" width="197.81" height="100" as="geometry" />
        </mxCell>
        <mxCell id="xoTzIHeCAV2_g0zYCG---214" value="&lt;strong&gt;Objective&lt;/strong&gt;: Execute the NSGA-II algorithm to generate Pareto-optimal solutions for Weight, Cost, and Durability." style="rounded=1;whiteSpace=wrap;html=1;fillColor=#d5e8d4;strokeColor=#82b366;align=center;" vertex="1" parent="1">
          <mxGeometry x="367.81" y="-1100" width="380.63" height="40" as="geometry" />
        </mxCell>
        <mxCell id="xoTzIHeCAV2_g0zYCG---223" style="edgeStyle=orthogonalEdgeStyle;rounded=0;orthogonalLoop=1;jettySize=auto;html=1;entryX=0.5;entryY=0;entryDx=0;entryDy=0;" edge="1" parent="1" source="xoTzIHeCAV2_g0zYCG---218" target="xoTzIHeCAV2_g0zYCG---213">
          <mxGeometry relative="1" as="geometry">
            <Array as="points">
              <mxPoint x="623.25" y="-890" />
              <mxPoint x="558.25" y="-890" />
            </Array>
          </mxGeometry>
        </mxCell>
        <mxCell id="xoTzIHeCAV2_g0zYCG---218" value="&lt;div style=&quot;text-align: left;&quot;&gt;&lt;b style=&quot;background-color: initial;&quot;&gt;&amp;nbsp; &amp;nbsp;Input:&lt;/b&gt;&lt;/div&gt;&lt;div style=&quot;text-align: left;&quot;&gt;&lt;span style=&quot;background-color: initial;&quot;&gt;&lt;b&gt;&amp;nbsp; &amp;nbsp; &amp;nbsp;&amp;nbsp;&lt;/b&gt;Constraints:&lt;/span&gt;&lt;/div&gt;&lt;div style=&quot;text-align: left;&quot;&gt;&lt;span style=&quot;background-color: initial;&quot;&gt;&amp;nbsp; &amp;nbsp; &amp;nbsp; &amp;nbsp; &amp;nbsp;-&amp;nbsp;&lt;/span&gt;&lt;span style=&quot;background-color: initial;&quot;&gt;Population size = 100&lt;/span&gt;&lt;/div&gt;&lt;div style=&quot;text-align: left;&quot;&gt;&lt;span style=&quot;background-color: initial;&quot;&gt;&amp;nbsp; &amp;nbsp; &amp;nbsp; &amp;nbsp; &amp;nbsp;-&amp;nbsp;&lt;/span&gt;&lt;span style=&quot;background-color: initial;&quot;&gt;Generations = 150&lt;/span&gt;&lt;/div&gt;&lt;div style=&quot;text-align: left;&quot;&gt;&lt;span style=&quot;background-color: initial;&quot;&gt;&amp;nbsp; &amp;nbsp; &amp;nbsp; &amp;nbsp; &amp;nbsp;-&amp;nbsp;&lt;/span&gt;&lt;span style=&quot;background-color: initial;&quot;&gt;Operators:&lt;/span&gt;&lt;/div&gt;&lt;blockquote style=&quot;margin: 0 0 0 40px; border: none; padding: 0px;&quot;&gt;&lt;strong style=&quot;background-color: initial;&quot;&gt;&lt;div style=&quot;text-align: left;&quot;&gt;&lt;strong style=&quot;background-color: initial;&quot;&gt;Sampling&lt;/strong&gt;&lt;span style=&quot;background-color: initial; font-weight: normal;&quot;&gt;: Random Sampling&lt;/span&gt;&lt;/div&gt;&lt;/strong&gt;&lt;strong style=&quot;background-color: initial;&quot;&gt;&lt;div style=&quot;text-align: left;&quot;&gt;&lt;strong style=&quot;background-color: initial;&quot;&gt;Crossover&lt;/strong&gt;&lt;span style=&quot;background-color: initial; font-weight: normal;&quot;&gt;: Simulated Binary Crossover (SBX)&lt;/span&gt;&lt;/div&gt;&lt;/strong&gt;&lt;div style=&quot;text-align: left;&quot;&gt;&lt;strong style=&quot;background-color: initial;&quot;&gt;Mutation&lt;/strong&gt;&lt;span style=&quot;background-color: initial;&quot;&gt;: Polynomial Mutation (PM)&lt;/span&gt;&lt;/div&gt;&lt;/blockquote&gt;&lt;div style=&quot;text-align: left;&quot;&gt;&lt;div&gt;&lt;/div&gt;&lt;/div&gt;" style="rounded=1;whiteSpace=wrap;html=1;align=center;fillColor=#dae8fc;strokeColor=#6c8ebf;" vertex="1" parent="1">
          <mxGeometry x="498.44000000000005" y="-1050" width="250" height="140" as="geometry" />
        </mxCell>
        <mxCell id="xoTzIHeCAV2_g0zYCG---222" style="edgeStyle=orthogonalEdgeStyle;rounded=0;orthogonalLoop=1;jettySize=auto;html=1;" edge="1" parent="1" source="xoTzIHeCAV2_g0zYCG---220" target="xoTzIHeCAV2_g0zYCG---213">
          <mxGeometry relative="1" as="geometry">
            <Array as="points">
              <mxPoint x="426.25" y="-890" />
              <mxPoint x="558.25" y="-890" />
            </Array>
          </mxGeometry>
        </mxCell>
        <mxCell id="xoTzIHeCAV2_g0zYCG---220" value="&lt;div style=&quot;text-align: left;&quot;&gt;&lt;b style=&quot;background-color: initial;&quot;&gt;&amp;nbsp; Input:&lt;/b&gt;&lt;/div&gt;&lt;div style=&quot;&quot;&gt;Optimization problem definition&lt;/div&gt;" style="rounded=1;whiteSpace=wrap;html=1;align=center;fillColor=#dae8fc;strokeColor=#6c8ebf;" vertex="1" parent="1">
          <mxGeometry x="368.44" y="-1010" width="115" height="60" as="geometry" />
        </mxCell>
        <mxCell id="xoTzIHeCAV2_g0zYCG---225" value="&lt;div style=&quot;text-align: left;&quot;&gt;&lt;b style=&quot;background-color: initial;&quot;&gt;Input:&lt;/b&gt;&lt;/div&gt;&lt;div style=&quot;text-align: left;&quot;&gt;Surrogate&lt;/div&gt;&lt;div style=&quot;text-align: left;&quot;&gt;models&lt;/div&gt;" style="rounded=1;whiteSpace=wrap;html=1;align=center;fillColor=#dae8fc;strokeColor=#6c8ebf;" vertex="1" parent="1">
          <mxGeometry x="-110.62" y="-1385" width="70.62" height="50" as="geometry" />
        </mxCell>
        <mxCell id="xoTzIHeCAV2_g0zYCG---226" value="&lt;div style=&quot;text-align: left;&quot;&gt;&lt;b style=&quot;background-color: initial;&quot;&gt;Input:&lt;/b&gt;&lt;/div&gt;&lt;div style=&quot;text-align: left;&quot;&gt;GA-ready&amp;nbsp;&lt;/div&gt;&lt;div style=&quot;text-align: left;&quot;&gt;dataset &lt;/div&gt;" style="rounded=1;whiteSpace=wrap;html=1;align=center;fillColor=#dae8fc;strokeColor=#6c8ebf;" vertex="1" parent="1">
          <mxGeometry x="197.18999999999997" y="-1390" width="71.25" height="50" as="geometry" />
        </mxCell>
        <mxCell id="xoTzIHeCAV2_g0zYCG---227" style="edgeStyle=orthogonalEdgeStyle;rounded=0;orthogonalLoop=1;jettySize=auto;html=1;entryX=0;entryY=0.5;entryDx=0;entryDy=0;exitX=0;exitY=0.5;exitDx=0;exitDy=0;" edge="1" parent="1" source="xoTzIHeCAV2_g0zYCG---157" target="xoTzIHeCAV2_g0zYCG---225">
          <mxGeometry relative="1" as="geometry">
            <Array as="points">
              <mxPoint x="-160" y="-1615" />
              <mxPoint x="-160" y="-1360" />
            </Array>
          </mxGeometry>
        </mxCell>
        <mxCell id="xoTzIHeCAV2_g0zYCG---228" style="edgeStyle=orthogonalEdgeStyle;rounded=0;orthogonalLoop=1;jettySize=auto;html=1;exitX=0;exitY=0.5;exitDx=0;exitDy=0;entryX=1;entryY=0.5;entryDx=0;entryDy=0;" edge="1" parent="1" source="xoTzIHeCAV2_g0zYCG---176" target="xoTzIHeCAV2_g0zYCG---226">
          <mxGeometry relative="1" as="geometry">
            <Array as="points">
              <mxPoint x="330" y="-1217" />
              <mxPoint x="330" y="-1365" />
            </Array>
          </mxGeometry>
        </mxCell>
        <mxCell id="xoTzIHeCAV2_g0zYCG---229" style="edgeStyle=orthogonalEdgeStyle;rounded=0;orthogonalLoop=1;jettySize=auto;html=1;exitX=1;exitY=0.5;exitDx=0;exitDy=0;" edge="1" parent="1" source="xoTzIHeCAV2_g0zYCG---193">
          <mxGeometry relative="1" as="geometry">
            <mxPoint x="368" y="-980" as="targetPoint" />
            <Array as="points">
              <mxPoint x="320" y="-995" />
              <mxPoint x="320" y="-980" />
            </Array>
          </mxGeometry>
        </mxCell>
        <mxCell id="xoTzIHeCAV2_g0zYCG---230" value="&lt;b&gt;Visualization and Results Analysis&amp;nbsp;M&lt;font&gt;&lt;span style=&quot;&quot; class=&quot;hljs-keyword&quot;&gt;odule&lt;/span&gt;&lt;/font&gt;&lt;/b&gt;&lt;div&gt;&lt;div&gt;&lt;br&gt;&lt;/div&gt;&lt;div&gt;&lt;span class=&quot;hljs-keyword&quot;&gt;&lt;br&gt;&lt;/span&gt;&lt;/div&gt;&lt;div&gt;&lt;br&gt;&lt;/div&gt;&lt;div&gt;&lt;br&gt;&lt;/div&gt;&lt;div&gt;&lt;span class=&quot;hljs-keyword&quot;&gt;&lt;br&gt;&lt;/span&gt;&lt;/div&gt;&lt;div&gt;&lt;span class=&quot;hljs-keyword&quot;&gt;&lt;br&gt;&lt;/span&gt;&lt;/div&gt;&lt;div&gt;&lt;span class=&quot;hljs-keyword&quot;&gt;&lt;br&gt;&lt;/span&gt;&lt;/div&gt;&lt;div&gt;&lt;span class=&quot;hljs-keyword&quot;&gt;&lt;br&gt;&lt;/span&gt;&lt;/div&gt;&lt;div&gt;&lt;span class=&quot;hljs-keyword&quot;&gt;&lt;br&gt;&lt;/span&gt;&lt;/div&gt;&lt;div&gt;&lt;span class=&quot;hljs-keyword&quot;&gt;&lt;br&gt;&lt;/span&gt;&lt;/div&gt;&lt;div&gt;&lt;span class=&quot;hljs-keyword&quot;&gt;&lt;br&gt;&lt;/span&gt;&lt;/div&gt;&lt;div&gt;&lt;span class=&quot;hljs-keyword&quot;&gt;&lt;br&gt;&lt;/span&gt;&lt;/div&gt;&lt;div&gt;&lt;span class=&quot;hljs-keyword&quot;&gt;&lt;br&gt;&lt;/span&gt;&lt;/div&gt;&lt;div&gt;&lt;span class=&quot;hljs-keyword&quot;&gt;&lt;br&gt;&lt;/span&gt;&lt;/div&gt;&lt;div&gt;&lt;span class=&quot;hljs-keyword&quot;&gt;&lt;br&gt;&lt;/span&gt;&lt;/div&gt;&lt;div&gt;&lt;span class=&quot;hljs-keyword&quot;&gt;&lt;br&gt;&lt;/span&gt;&lt;/div&gt;&lt;div&gt;&lt;span class=&quot;hljs-keyword&quot;&gt;&lt;br&gt;&lt;/span&gt;&lt;/div&gt;&lt;div&gt;&lt;span class=&quot;hljs-keyword&quot;&gt;&lt;br&gt;&lt;/span&gt;&lt;/div&gt;&lt;div&gt;&lt;span class=&quot;hljs-keyword&quot;&gt;&lt;br&gt;&lt;/span&gt;&lt;/div&gt;&lt;div&gt;&lt;span class=&quot;hljs-keyword&quot;&gt;&lt;br&gt;&lt;/span&gt;&lt;/div&gt;&lt;div&gt;&lt;span class=&quot;hljs-keyword&quot;&gt;&lt;br&gt;&lt;/span&gt;&lt;/div&gt;&lt;div&gt;&lt;span class=&quot;hljs-keyword&quot;&gt;&lt;br&gt;&lt;/span&gt;&lt;/div&gt;&lt;div&gt;&lt;span class=&quot;hljs-keyword&quot;&gt;&lt;br&gt;&lt;/span&gt;&lt;/div&gt;&lt;div&gt;&lt;span class=&quot;hljs-keyword&quot;&gt;&lt;br&gt;&lt;/span&gt;&lt;/div&gt;&lt;div&gt;&lt;span class=&quot;hljs-keyword&quot;&gt;&lt;br&gt;&lt;/span&gt;&lt;/div&gt;&lt;div&gt;&lt;span class=&quot;hljs-keyword&quot;&gt;&lt;br&gt;&lt;/span&gt;&lt;/div&gt;&lt;div&gt;&lt;span class=&quot;hljs-keyword&quot;&gt;&lt;br&gt;&lt;/span&gt;&lt;/div&gt;&lt;div&gt;&lt;span class=&quot;hljs-keyword&quot;&gt;&lt;br&gt;&lt;/span&gt;&lt;/div&gt;&lt;div&gt;&lt;span class=&quot;hljs-keyword&quot;&gt;&lt;br&gt;&lt;/span&gt;&lt;/div&gt;&lt;div&gt;&lt;span class=&quot;hljs-keyword&quot;&gt;&lt;br&gt;&lt;/span&gt;&lt;/div&gt;&lt;/div&gt;" style="rounded=0;whiteSpace=wrap;html=1;" vertex="1" parent="1">
          <mxGeometry x="358.43999999999994" y="-550" width="400" height="470" as="geometry" />
        </mxCell>
        <mxCell id="xoTzIHeCAV2_g0zYCG---231" value="&lt;span style=&quot;&quot;&gt;&lt;b&gt;&amp;nbsp; Output:&lt;/b&gt;&lt;/span&gt;&lt;blockquote style=&quot;margin: 0 0 0 40px; border: none; padding: 0px;&quot;&gt;&lt;div style=&quot;&quot;&gt;&lt;span style=&quot;background-color: initial;&quot;&gt;- Annotated Pareto Front (3D).&lt;/span&gt;&lt;/div&gt;&lt;div style=&quot;&quot;&gt;&lt;span style=&quot;background-color: initial;&quot;&gt;- Fitness evolution plots with annotations.&lt;/span&gt;&lt;/div&gt;&lt;div style=&quot;&quot;&gt;&lt;span style=&quot;background-color: initial;&quot;&gt;- Numerical table of Pareto-optimal solutions saved to &lt;/span&gt;&lt;code style=&quot;background-color: initial;&quot;&gt;final_pareto_solutions.csv&lt;/code&gt;&lt;/div&gt;&lt;/blockquote&gt;" style="rounded=1;whiteSpace=wrap;html=1;align=left;fillColor=#e1d5e7;strokeColor=#9673a6;" vertex="1" parent="1">
          <mxGeometry x="410.15999999999997" y="-180" width="300" height="80" as="geometry" />
        </mxCell>
        <mxCell id="xoTzIHeCAV2_g0zYCG---232" value="" style="edgeStyle=orthogonalEdgeStyle;rounded=0;orthogonalLoop=1;jettySize=auto;html=1;" edge="1" parent="1" source="xoTzIHeCAV2_g0zYCG---233" target="xoTzIHeCAV2_g0zYCG---231">
          <mxGeometry relative="1" as="geometry" />
        </mxCell>
        <mxCell id="xoTzIHeCAV2_g0zYCG---233" value="&amp;nbsp; &amp;nbsp;&lt;b&gt;Processes:&lt;/b&gt;&lt;div style=&quot;&quot;&gt;&lt;span style=&quot;background-color: initial;&quot;&gt;&amp;nbsp; &amp;nbsp;-&amp;nbsp;&lt;/span&gt;&lt;span style=&quot;background-color: initial;&quot;&gt;Plot &lt;/span&gt;&lt;strong style=&quot;background-color: initial;&quot;&gt;Pareto Front&lt;/strong&gt;&lt;span style=&quot;background-color: initial;&quot;&gt; in 3D for tri-objective visualization.&lt;/span&gt;&lt;/div&gt;&lt;span style=&quot;background-color: initial;&quot;&gt;&amp;nbsp; &amp;nbsp;-&amp;nbsp;&lt;/span&gt;Annotate key solutions&lt;br&gt;&lt;font style=&quot;background-color: initial;&quot; face=&quot;Helvetica&quot;&gt;&amp;nbsp; &amp;nbsp;-&amp;nbsp;&lt;/font&gt;Plot &lt;strong&gt;Fitness Evolution&lt;/strong&gt; for:&lt;blockquote style=&quot;margin: 0 0 0 40px; border: none; padding: 0px;&quot;&gt;&lt;div&gt;&lt;span style=&quot;background-color: initial;&quot;&gt;Weight convergence.&lt;/span&gt;&lt;/div&gt;&lt;div&gt;&lt;span style=&quot;background-color: initial;&quot;&gt;Durability stabilization.&lt;/span&gt;&lt;/div&gt;&lt;div&gt;&lt;span style=&quot;background-color: initial;&quot;&gt;Cost convergence.&lt;/span&gt;&lt;/div&gt;&lt;/blockquote&gt;&lt;div&gt;&lt;div&gt;&amp;nbsp; &amp;nbsp;-&amp;nbsp;&lt;span style=&quot;background-color: initial;&quot;&gt;Display numerical results in a &lt;/span&gt;&lt;strong style=&quot;background-color: initial;&quot;&gt;table format&lt;/strong&gt;&lt;span style=&quot;background-color: initial;&quot;&gt;:&lt;/span&gt;&lt;/div&gt;&lt;/div&gt;&lt;blockquote style=&quot;margin: 0 0 0 40px; border: none; padding: 0px;&quot;&gt;&lt;div&gt;&lt;div style=&quot;&quot;&gt;&lt;span style=&quot;background-color: initial;&quot;&gt;Material Name, Thickness, Weight, Cost, and Durability.&lt;/span&gt;&lt;/div&gt;&lt;/div&gt;&lt;/blockquote&gt;" style="rounded=1;whiteSpace=wrap;html=1;align=left;fillColor=#ffe6cc;strokeColor=#d79b00;" vertex="1" parent="1">
          <mxGeometry x="400.1600000000001" y="-350" width="320" height="150" as="geometry" />
        </mxCell>
        <mxCell id="xoTzIHeCAV2_g0zYCG---234" value="&lt;strong&gt;Objective&lt;/strong&gt;: Interpret and present optimization results effectively." style="rounded=1;whiteSpace=wrap;html=1;fillColor=#d5e8d4;strokeColor=#82b366;align=center;" vertex="1" parent="1">
          <mxGeometry x="377.35" y="-510" width="362.19" height="30" as="geometry" />
        </mxCell>
        <mxCell id="xoTzIHeCAV2_g0zYCG---235" style="edgeStyle=orthogonalEdgeStyle;rounded=0;orthogonalLoop=1;jettySize=auto;html=1;entryX=0.5;entryY=0;entryDx=0;entryDy=0;exitX=0.5;exitY=1;exitDx=0;exitDy=0;" edge="1" parent="1" source="xoTzIHeCAV2_g0zYCG---241" target="xoTzIHeCAV2_g0zYCG---233">
          <mxGeometry relative="1" as="geometry">
            <Array as="points">
              <mxPoint x="648.26" y="-380" />
              <mxPoint x="560.26" y="-380" />
            </Array>
            <mxPoint x="625.2007692307691" y="-360" as="sourcePoint" />
          </mxGeometry>
        </mxCell>
        <mxCell id="xoTzIHeCAV2_g0zYCG---237" style="edgeStyle=orthogonalEdgeStyle;rounded=0;orthogonalLoop=1;jettySize=auto;html=1;exitX=0.5;exitY=1;exitDx=0;exitDy=0;" edge="1" parent="1" source="xoTzIHeCAV2_g0zYCG---238" target="xoTzIHeCAV2_g0zYCG---233">
          <mxGeometry relative="1" as="geometry">
            <Array as="points">
              <mxPoint x="454.26" y="-380" />
              <mxPoint x="560.26" y="-380" />
            </Array>
          </mxGeometry>
        </mxCell>
        <mxCell id="xoTzIHeCAV2_g0zYCG---238" value="&lt;div style=&quot;text-align: left;&quot;&gt;&lt;b style=&quot;background-color: initial;&quot;&gt;&amp;nbsp; Input:&lt;/b&gt;&lt;/div&gt;&lt;div style=&quot;&quot;&gt;Pareto-optimal solutions from the GA optimization.&lt;/div&gt;" style="rounded=1;whiteSpace=wrap;html=1;align=center;fillColor=#dae8fc;strokeColor=#6c8ebf;" vertex="1" parent="1">
          <mxGeometry x="390.1600000000001" y="-460" width="127.81" height="60" as="geometry" />
        </mxCell>
        <mxCell id="xoTzIHeCAV2_g0zYCG---239" value="&lt;span style=&quot;&quot;&gt;&lt;b&gt;&amp;nbsp; Output:&lt;/b&gt;&lt;/span&gt;&lt;div style=&quot;text-align: center;&quot;&gt;&lt;span style=&quot;background-color: initial;&quot;&gt;&lt;b&gt;&amp;nbsp;&amp;nbsp;&lt;/b&gt;&lt;/span&gt;&lt;span style=&quot;background-color: initial;&quot;&gt;Fitness history for Weight, Cost, and Durability across generations.&lt;/span&gt;&lt;/div&gt;" style="rounded=1;whiteSpace=wrap;html=1;align=left;fillColor=#e1d5e7;strokeColor=#9673a6;" vertex="1" parent="1">
          <mxGeometry x="596.4" y="-710" width="133.44" height="90" as="geometry" />
        </mxCell>
        <mxCell id="xoTzIHeCAV2_g0zYCG---241" value="&lt;div style=&quot;text-align: left;&quot;&gt;&lt;b style=&quot;background-color: initial;&quot;&gt;&amp;nbsp; Input:&lt;/b&gt;&lt;/div&gt;&lt;div style=&quot;&quot;&gt;Fitness history for Weight, Cost, and Durability across generations.&lt;/div&gt;" style="rounded=1;whiteSpace=wrap;html=1;align=center;fillColor=#dae8fc;strokeColor=#6c8ebf;" vertex="1" parent="1">
          <mxGeometry x="570.47" y="-470" width="155.63" height="70" as="geometry" />
        </mxCell>
        <mxCell id="xoTzIHeCAV2_g0zYCG---243" style="edgeStyle=orthogonalEdgeStyle;rounded=0;orthogonalLoop=1;jettySize=auto;html=1;entryX=0;entryY=0.5;entryDx=0;entryDy=0;" edge="1" parent="1" source="xoTzIHeCAV2_g0zYCG---211" target="xoTzIHeCAV2_g0zYCG---238">
          <mxGeometry relative="1" as="geometry">
            <Array as="points">
              <mxPoint x="466.12" y="-570" />
              <mxPoint x="338.12" y="-570" />
              <mxPoint x="338.12" y="-430" />
            </Array>
          </mxGeometry>
        </mxCell>
        <mxCell id="xoTzIHeCAV2_g0zYCG---244" value="Test the ML models" style="rounded=1;whiteSpace=wrap;html=1;align=center;fillColor=#ffe6cc;strokeColor=#d79b00;" vertex="1" parent="1">
          <mxGeometry x="480.33" y="-1590" width="109.67" height="30" as="geometry" />
        </mxCell>
        <mxCell id="xoTzIHeCAV2_g0zYCG---246" style="edgeStyle=orthogonalEdgeStyle;rounded=0;orthogonalLoop=1;jettySize=auto;html=1;entryX=0.998;entryY=0.559;entryDx=0;entryDy=0;entryPerimeter=0;" edge="1" parent="1" source="xoTzIHeCAV2_g0zYCG---239" target="xoTzIHeCAV2_g0zYCG---241">
          <mxGeometry relative="1" as="geometry">
            <Array as="points">
              <mxPoint x="663" y="-570" />
              <mxPoint x="780" y="-570" />
              <mxPoint x="780" y="-431" />
            </Array>
          </mxGeometry>
        </mxCell>
      </root>
    </mxGraphModel>
  </diagram>
</mxfile>
